<mxfile host="Electron" agent="Mozilla/5.0 (X11; Linux x86_64) AppleWebKit/537.36 (KHTML, like Gecko) draw.io/27.0.5 Chrome/134.0.6998.205 Electron/35.4.0 Safari/537.36" version="27.0.5" pages="10">
  <diagram id="VqopQMf0UBtFPQJU2d9-" name="A-0">
    <mxGraphModel dx="2066" dy="1232" grid="1" gridSize="10" guides="1" tooltips="1" connect="1" arrows="1" fold="1" page="1" pageScale="1" pageWidth="850" pageHeight="1100" math="0" shadow="0">
      <root>
        <mxCell id="0" />
        <mxCell id="1" parent="0" />
        <mxCell id="qjXTLztOJXhvRzQW65LV-5" value="" style="group" parent="1" vertex="1" connectable="0">
          <mxGeometry x="360" y="440" width="200" height="120" as="geometry" />
        </mxCell>
        <mxCell id="qjXTLztOJXhvRzQW65LV-3" value="Выполнить транзакцию&lt;div&gt;с акциями&lt;/div&gt;" style="rounded=0;whiteSpace=wrap;html=1;movable=1;resizable=1;rotatable=1;deletable=1;editable=1;locked=0;connectable=1;" parent="qjXTLztOJXhvRzQW65LV-5" vertex="1">
          <mxGeometry width="199.99999999999997" height="119.99999999999999" as="geometry" />
        </mxCell>
        <mxCell id="qjXTLztOJXhvRzQW65LV-4" value="&lt;font style=&quot;font-size: 10px;&quot;&gt;0&lt;/font&gt;" style="text;html=1;align=center;verticalAlign=middle;whiteSpace=wrap;rounded=0;movable=1;resizable=1;rotatable=1;deletable=1;editable=1;locked=0;connectable=1;" parent="qjXTLztOJXhvRzQW65LV-5" vertex="1">
          <mxGeometry x="174.35897435897436" y="90" width="25.641025641025642" height="30" as="geometry" />
        </mxCell>
        <mxCell id="qjXTLztOJXhvRzQW65LV-12" value="" style="endArrow=classic;html=1;rounded=0;entryX=0;entryY=0;entryDx=0;entryDy=0;flowAnimation=0;shadow=0;" parent="1" edge="1">
          <mxGeometry width="50" height="50" relative="1" as="geometry">
            <mxPoint x="240" y="460" as="sourcePoint" />
            <mxPoint x="360" y="460" as="targetPoint" />
          </mxGeometry>
        </mxCell>
        <mxCell id="qjXTLztOJXhvRzQW65LV-15" value="Запрос на&lt;div&gt;транзакцию&lt;/div&gt;" style="edgeLabel;html=1;align=center;verticalAlign=middle;resizable=0;points=[];" parent="qjXTLztOJXhvRzQW65LV-12" vertex="1" connectable="0">
          <mxGeometry x="-0.1529" y="-1" relative="1" as="geometry">
            <mxPoint x="4" y="-21" as="offset" />
          </mxGeometry>
        </mxCell>
        <mxCell id="qjXTLztOJXhvRzQW65LV-16" value="" style="endArrow=classic;html=1;rounded=0;entryX=0;entryY=0.25;entryDx=0;entryDy=0;" parent="1" edge="1">
          <mxGeometry width="50" height="50" relative="1" as="geometry">
            <mxPoint x="240" y="500" as="sourcePoint" />
            <mxPoint x="360" y="500" as="targetPoint" />
          </mxGeometry>
        </mxCell>
        <mxCell id="qjXTLztOJXhvRzQW65LV-17" value="Данные&lt;div&gt;пользователя&lt;/div&gt;" style="edgeLabel;html=1;align=center;verticalAlign=middle;resizable=0;points=[];" parent="qjXTLztOJXhvRzQW65LV-16" vertex="1" connectable="0">
          <mxGeometry x="-0.1529" y="-1" relative="1" as="geometry">
            <mxPoint x="4" y="-21" as="offset" />
          </mxGeometry>
        </mxCell>
        <mxCell id="WYGavnFXMqo7LUlz_abh-1" value="" style="endArrow=classic;html=1;rounded=0;entryX=0;entryY=0.5;entryDx=0;entryDy=0;" parent="1" edge="1">
          <mxGeometry width="50" height="50" relative="1" as="geometry">
            <mxPoint x="240" y="540" as="sourcePoint" />
            <mxPoint x="360" y="540" as="targetPoint" />
          </mxGeometry>
        </mxCell>
        <mxCell id="WYGavnFXMqo7LUlz_abh-2" value="Рыночные&lt;div&gt;данные&lt;/div&gt;" style="edgeLabel;html=1;align=center;verticalAlign=middle;resizable=0;points=[];" parent="WYGavnFXMqo7LUlz_abh-1" vertex="1" connectable="0">
          <mxGeometry x="-0.1529" y="-1" relative="1" as="geometry">
            <mxPoint x="4" y="-21" as="offset" />
          </mxGeometry>
        </mxCell>
        <mxCell id="WYGavnFXMqo7LUlz_abh-3" value="" style="endArrow=classic;html=1;rounded=0;flowAnimation=0;shadow=0;" parent="1" edge="1">
          <mxGeometry width="50" height="50" relative="1" as="geometry">
            <mxPoint x="560" y="442" as="sourcePoint" />
            <mxPoint x="680" y="442" as="targetPoint" />
          </mxGeometry>
        </mxCell>
        <mxCell id="WYGavnFXMqo7LUlz_abh-4" value="Результат&lt;div&gt;транзакции&lt;/div&gt;" style="edgeLabel;html=1;align=center;verticalAlign=middle;resizable=0;points=[];" parent="WYGavnFXMqo7LUlz_abh-3" vertex="1" connectable="0">
          <mxGeometry x="-0.1529" y="-1" relative="1" as="geometry">
            <mxPoint x="4" y="-21" as="offset" />
          </mxGeometry>
        </mxCell>
        <mxCell id="WYGavnFXMqo7LUlz_abh-5" value="" style="endArrow=classic;html=1;rounded=0;exitX=1;exitY=0.25;exitDx=0;exitDy=0;" parent="1" edge="1">
          <mxGeometry width="50" height="50" relative="1" as="geometry">
            <mxPoint x="560" y="480" as="sourcePoint" />
            <mxPoint x="680" y="480" as="targetPoint" />
          </mxGeometry>
        </mxCell>
        <mxCell id="WYGavnFXMqo7LUlz_abh-6" value="Обновлённый&lt;div&gt;портфель&lt;/div&gt;" style="edgeLabel;html=1;align=center;verticalAlign=middle;resizable=0;points=[];" parent="WYGavnFXMqo7LUlz_abh-5" vertex="1" connectable="0">
          <mxGeometry x="-0.1529" y="-1" relative="1" as="geometry">
            <mxPoint x="4" y="-21" as="offset" />
          </mxGeometry>
        </mxCell>
        <mxCell id="WYGavnFXMqo7LUlz_abh-7" value="" style="endArrow=classic;html=1;rounded=0;exitX=1;exitY=0.5;exitDx=0;exitDy=0;" parent="1" edge="1">
          <mxGeometry width="50" height="50" relative="1" as="geometry">
            <mxPoint x="560" y="520" as="sourcePoint" />
            <mxPoint x="680" y="520" as="targetPoint" />
          </mxGeometry>
        </mxCell>
        <mxCell id="WYGavnFXMqo7LUlz_abh-8" value="Обновлённый баланс&lt;div&gt;счёта&lt;/div&gt;" style="edgeLabel;html=1;align=center;verticalAlign=middle;resizable=0;points=[];" parent="WYGavnFXMqo7LUlz_abh-7" vertex="1" connectable="0">
          <mxGeometry x="-0.1529" y="-1" relative="1" as="geometry">
            <mxPoint x="24" y="-21" as="offset" />
          </mxGeometry>
        </mxCell>
        <mxCell id="WYGavnFXMqo7LUlz_abh-9" value="" style="endArrow=classic;html=1;rounded=0;exitX=1;exitY=1;exitDx=0;exitDy=0;" parent="1" edge="1">
          <mxGeometry width="50" height="50" relative="1" as="geometry">
            <mxPoint x="560" y="558.0000000000001" as="sourcePoint" />
            <mxPoint x="680" y="558" as="targetPoint" />
          </mxGeometry>
        </mxCell>
        <mxCell id="WYGavnFXMqo7LUlz_abh-10" value="Логи&lt;div&gt;операции&lt;/div&gt;" style="edgeLabel;html=1;align=center;verticalAlign=middle;resizable=0;points=[];" parent="WYGavnFXMqo7LUlz_abh-9" vertex="1" connectable="0">
          <mxGeometry x="-0.1529" y="-1" relative="1" as="geometry">
            <mxPoint x="4" y="-21" as="offset" />
          </mxGeometry>
        </mxCell>
        <mxCell id="WYGavnFXMqo7LUlz_abh-11" value="" style="endArrow=classic;html=1;rounded=0;entryX=0;entryY=0;entryDx=0;entryDy=0;" parent="1" edge="1">
          <mxGeometry width="50" height="50" relative="1" as="geometry">
            <mxPoint x="362" y="320" as="sourcePoint" />
            <mxPoint x="362" y="440" as="targetPoint" />
          </mxGeometry>
        </mxCell>
        <mxCell id="WYGavnFXMqo7LUlz_abh-13" value="Правила&lt;div&gt;работы&lt;/div&gt;&lt;div&gt;системы&lt;/div&gt;" style="edgeLabel;html=1;align=center;verticalAlign=middle;resizable=0;points=[];" parent="WYGavnFXMqo7LUlz_abh-11" vertex="1" connectable="0">
          <mxGeometry x="-0.2027" relative="1" as="geometry">
            <mxPoint x="48" y="-28" as="offset" />
          </mxGeometry>
        </mxCell>
        <mxCell id="WYGavnFXMqo7LUlz_abh-14" value="" style="endArrow=classic;html=1;rounded=0;entryX=0;entryY=0;entryDx=0;entryDy=0;" parent="1" edge="1">
          <mxGeometry width="50" height="50" relative="1" as="geometry">
            <mxPoint x="459.77" y="320" as="sourcePoint" />
            <mxPoint x="459.77" y="440" as="targetPoint" />
          </mxGeometry>
        </mxCell>
        <mxCell id="WYGavnFXMqo7LUlz_abh-15" value="Регуляторные&lt;div&gt;требования&lt;/div&gt;" style="edgeLabel;html=1;align=center;verticalAlign=middle;resizable=0;points=[];" parent="WYGavnFXMqo7LUlz_abh-14" vertex="1" connectable="0">
          <mxGeometry x="-0.2027" relative="1" as="geometry">
            <mxPoint x="50" y="-28" as="offset" />
          </mxGeometry>
        </mxCell>
        <mxCell id="WYGavnFXMqo7LUlz_abh-16" value="" style="endArrow=classic;html=1;rounded=0;entryX=0;entryY=0;entryDx=0;entryDy=0;" parent="1" edge="1">
          <mxGeometry width="50" height="50" relative="1" as="geometry">
            <mxPoint x="558" y="320" as="sourcePoint" />
            <mxPoint x="558" y="440" as="targetPoint" />
          </mxGeometry>
        </mxCell>
        <mxCell id="WYGavnFXMqo7LUlz_abh-17" value="Законы РБ" style="edgeLabel;html=1;align=center;verticalAlign=middle;resizable=0;points=[];" parent="WYGavnFXMqo7LUlz_abh-16" vertex="1" connectable="0">
          <mxGeometry x="-0.2027" relative="1" as="geometry">
            <mxPoint x="42" y="-28" as="offset" />
          </mxGeometry>
        </mxCell>
        <mxCell id="WYGavnFXMqo7LUlz_abh-18" value="" style="endArrow=classic;html=1;rounded=0;entryX=0;entryY=1;entryDx=0;entryDy=0;" parent="1" edge="1">
          <mxGeometry width="50" height="50" relative="1" as="geometry">
            <mxPoint x="362" y="680" as="sourcePoint" />
            <mxPoint x="362" y="560" as="targetPoint" />
          </mxGeometry>
        </mxCell>
        <mxCell id="WYGavnFXMqo7LUlz_abh-19" value="Клиентское&lt;div&gt;приложение&lt;/div&gt;" style="edgeLabel;html=1;align=center;verticalAlign=middle;resizable=0;points=[];" parent="WYGavnFXMqo7LUlz_abh-18" vertex="1" connectable="0">
          <mxGeometry x="0.0846" relative="1" as="geometry">
            <mxPoint x="-40" y="45" as="offset" />
          </mxGeometry>
        </mxCell>
        <mxCell id="WYGavnFXMqo7LUlz_abh-20" value="" style="endArrow=classic;html=1;rounded=0;entryX=0;entryY=1;entryDx=0;entryDy=0;" parent="1" edge="1">
          <mxGeometry width="50" height="50" relative="1" as="geometry">
            <mxPoint x="433" y="680" as="sourcePoint" />
            <mxPoint x="433" y="560" as="targetPoint" />
          </mxGeometry>
        </mxCell>
        <mxCell id="WYGavnFXMqo7LUlz_abh-21" value="Сервер" style="edgeLabel;html=1;align=center;verticalAlign=middle;resizable=0;points=[];" parent="WYGavnFXMqo7LUlz_abh-20" vertex="1" connectable="0">
          <mxGeometry x="0.0846" relative="1" as="geometry">
            <mxPoint x="-30" y="45" as="offset" />
          </mxGeometry>
        </mxCell>
        <mxCell id="WYGavnFXMqo7LUlz_abh-22" value="" style="endArrow=classic;html=1;rounded=0;entryX=0;entryY=1;entryDx=0;entryDy=0;" parent="1" edge="1">
          <mxGeometry width="50" height="50" relative="1" as="geometry">
            <mxPoint x="502" y="680" as="sourcePoint" />
            <mxPoint x="502" y="560" as="targetPoint" />
          </mxGeometry>
        </mxCell>
        <mxCell id="WYGavnFXMqo7LUlz_abh-23" value="База&lt;br&gt;данных" style="edgeLabel;html=1;align=center;verticalAlign=middle;resizable=0;points=[];" parent="WYGavnFXMqo7LUlz_abh-22" vertex="1" connectable="0">
          <mxGeometry x="0.0846" relative="1" as="geometry">
            <mxPoint x="-30" y="45" as="offset" />
          </mxGeometry>
        </mxCell>
        <mxCell id="WYGavnFXMqo7LUlz_abh-24" value="" style="endArrow=classic;html=1;rounded=0;entryX=0;entryY=1;entryDx=0;entryDy=0;" parent="1" edge="1">
          <mxGeometry width="50" height="50" relative="1" as="geometry">
            <mxPoint x="558" y="680" as="sourcePoint" />
            <mxPoint x="558" y="560" as="targetPoint" />
          </mxGeometry>
        </mxCell>
        <mxCell id="WYGavnFXMqo7LUlz_abh-25" value="Логгер" style="edgeLabel;html=1;align=center;verticalAlign=middle;resizable=0;points=[];" parent="WYGavnFXMqo7LUlz_abh-24" vertex="1" connectable="0">
          <mxGeometry x="0.0846" relative="1" as="geometry">
            <mxPoint x="-26" y="45" as="offset" />
          </mxGeometry>
        </mxCell>
      </root>
    </mxGraphModel>
  </diagram>
  <diagram name="A0" id="LP84JYSuojNtpzHslKkX">
    <mxGraphModel dx="1181" dy="704" grid="1" gridSize="10" guides="1" tooltips="1" connect="1" arrows="1" fold="1" page="1" pageScale="1" pageWidth="850" pageHeight="1100" math="0" shadow="0">
      <root>
        <mxCell id="b5BTlqF_XiyDX51yJmQx-0" />
        <mxCell id="b5BTlqF_XiyDX51yJmQx-1" parent="b5BTlqF_XiyDX51yJmQx-0" />
        <mxCell id="b5BTlqF_XiyDX51yJmQx-2" value="" style="group" parent="b5BTlqF_XiyDX51yJmQx-1" vertex="1" connectable="0">
          <mxGeometry x="200" y="240" width="200" height="120" as="geometry" />
        </mxCell>
        <mxCell id="b5BTlqF_XiyDX51yJmQx-3" value="Проверить авторизацию пользователя" style="rounded=0;whiteSpace=wrap;html=1;movable=1;resizable=1;rotatable=1;deletable=1;editable=1;locked=0;connectable=1;" parent="b5BTlqF_XiyDX51yJmQx-2" vertex="1">
          <mxGeometry width="199.99999999999997" height="119.99999999999999" as="geometry" />
        </mxCell>
        <mxCell id="b5BTlqF_XiyDX51yJmQx-4" value="&lt;font style=&quot;font-size: 10px;&quot;&gt;1&lt;/font&gt;" style="text;html=1;align=center;verticalAlign=middle;whiteSpace=wrap;rounded=0;movable=1;resizable=1;rotatable=1;deletable=1;editable=1;locked=0;connectable=1;" parent="b5BTlqF_XiyDX51yJmQx-2" vertex="1">
          <mxGeometry x="174.35897435897436" y="90" width="25.641025641025642" height="30" as="geometry" />
        </mxCell>
        <mxCell id="3UPLpKH7urRyliRC6hZz-0" value="" style="group" parent="b5BTlqF_XiyDX51yJmQx-1" vertex="1" connectable="0">
          <mxGeometry x="480" y="320" width="200" height="120" as="geometry" />
        </mxCell>
        <mxCell id="3UPLpKH7urRyliRC6hZz-1" value="Проверить условия транзакции" style="rounded=0;whiteSpace=wrap;html=1;movable=1;resizable=1;rotatable=1;deletable=1;editable=1;locked=0;connectable=1;" parent="3UPLpKH7urRyliRC6hZz-0" vertex="1">
          <mxGeometry width="199.99999999999997" height="119.99999999999999" as="geometry" />
        </mxCell>
        <mxCell id="3UPLpKH7urRyliRC6hZz-2" value="&lt;font style=&quot;font-size: 10px;&quot;&gt;2&lt;/font&gt;" style="text;html=1;align=center;verticalAlign=middle;whiteSpace=wrap;rounded=0;movable=1;resizable=1;rotatable=1;deletable=1;editable=1;locked=0;connectable=1;" parent="3UPLpKH7urRyliRC6hZz-0" vertex="1">
          <mxGeometry x="174.35897435897436" y="90" width="25.641025641025642" height="30" as="geometry" />
        </mxCell>
        <mxCell id="3UPLpKH7urRyliRC6hZz-3" value="" style="group" parent="b5BTlqF_XiyDX51yJmQx-1" vertex="1" connectable="0">
          <mxGeometry x="760" y="400" width="200" height="120" as="geometry" />
        </mxCell>
        <mxCell id="3UPLpKH7urRyliRC6hZz-4" value="Выполнить транзакцию" style="rounded=0;whiteSpace=wrap;html=1;movable=1;resizable=1;rotatable=1;deletable=1;editable=1;locked=0;connectable=1;" parent="3UPLpKH7urRyliRC6hZz-3" vertex="1">
          <mxGeometry width="199.99999999999997" height="119.99999999999999" as="geometry" />
        </mxCell>
        <mxCell id="3UPLpKH7urRyliRC6hZz-5" value="&lt;font style=&quot;font-size: 10px;&quot;&gt;3&lt;/font&gt;" style="text;html=1;align=center;verticalAlign=middle;whiteSpace=wrap;rounded=0;movable=1;resizable=1;rotatable=1;deletable=1;editable=1;locked=0;connectable=1;" parent="3UPLpKH7urRyliRC6hZz-3" vertex="1">
          <mxGeometry x="174.35897435897436" y="90" width="25.641025641025642" height="30" as="geometry" />
        </mxCell>
        <mxCell id="3UPLpKH7urRyliRC6hZz-6" value="" style="group" parent="b5BTlqF_XiyDX51yJmQx-1" vertex="1" connectable="0">
          <mxGeometry x="1040" y="480" width="200" height="120" as="geometry" />
        </mxCell>
        <mxCell id="3UPLpKH7urRyliRC6hZz-7" value="Выполнить логгирование и подтвердить операцию" style="rounded=0;whiteSpace=wrap;html=1;movable=1;resizable=1;rotatable=1;deletable=1;editable=1;locked=0;connectable=1;" parent="3UPLpKH7urRyliRC6hZz-6" vertex="1">
          <mxGeometry width="199.99999999999997" height="119.99999999999999" as="geometry" />
        </mxCell>
        <mxCell id="3UPLpKH7urRyliRC6hZz-8" value="&lt;font style=&quot;font-size: 10px;&quot;&gt;4&lt;/font&gt;" style="text;html=1;align=center;verticalAlign=middle;whiteSpace=wrap;rounded=0;movable=1;resizable=1;rotatable=1;deletable=1;editable=1;locked=0;connectable=1;" parent="3UPLpKH7urRyliRC6hZz-6" vertex="1">
          <mxGeometry x="174.35897435897436" y="90" width="25.641025641025642" height="30" as="geometry" />
        </mxCell>
        <mxCell id="3UPLpKH7urRyliRC6hZz-9" value="" style="group" parent="b5BTlqF_XiyDX51yJmQx-1" vertex="1" connectable="0">
          <mxGeometry x="1320" y="560" width="200" height="120" as="geometry" />
        </mxCell>
        <mxCell id="3UPLpKH7urRyliRC6hZz-10" value="Обновить аналитические&lt;div&gt;данные&lt;/div&gt;" style="rounded=0;whiteSpace=wrap;html=1;movable=1;resizable=1;rotatable=1;deletable=1;editable=1;locked=0;connectable=1;" parent="3UPLpKH7urRyliRC6hZz-9" vertex="1">
          <mxGeometry width="199.99999999999997" height="119.99999999999999" as="geometry" />
        </mxCell>
        <mxCell id="3UPLpKH7urRyliRC6hZz-11" value="&lt;font style=&quot;font-size: 10px;&quot;&gt;5&lt;/font&gt;" style="text;html=1;align=center;verticalAlign=middle;whiteSpace=wrap;rounded=0;movable=1;resizable=1;rotatable=1;deletable=1;editable=1;locked=0;connectable=1;" parent="3UPLpKH7urRyliRC6hZz-9" vertex="1">
          <mxGeometry x="174.35897435897436" y="90" width="25.641025641025642" height="30" as="geometry" />
        </mxCell>
        <mxCell id="Xz4rIdycYfWdKF9P5o1K-0" value="" style="endArrow=classic;html=1;rounded=0;entryX=0;entryY=0.25;entryDx=0;entryDy=0;" parent="b5BTlqF_XiyDX51yJmQx-1" edge="1">
          <mxGeometry width="50" height="50" relative="1" as="geometry">
            <mxPoint x="80" y="280" as="sourcePoint" />
            <mxPoint x="200" y="280" as="targetPoint" />
          </mxGeometry>
        </mxCell>
        <mxCell id="Xz4rIdycYfWdKF9P5o1K-1" value="Данные&lt;div&gt;пользователя&lt;/div&gt;" style="edgeLabel;html=1;align=center;verticalAlign=middle;resizable=0;points=[];" parent="Xz4rIdycYfWdKF9P5o1K-0" vertex="1" connectable="0">
          <mxGeometry x="-0.1529" y="-1" relative="1" as="geometry">
            <mxPoint x="4" y="-21" as="offset" />
          </mxGeometry>
        </mxCell>
        <mxCell id="Xz4rIdycYfWdKF9P5o1K-2" style="edgeStyle=orthogonalEdgeStyle;rounded=0;orthogonalLoop=1;jettySize=auto;html=1;entryX=0.004;entryY=0.364;entryDx=0;entryDy=0;entryPerimeter=0;" parent="b5BTlqF_XiyDX51yJmQx-1" source="b5BTlqF_XiyDX51yJmQx-3" target="3UPLpKH7urRyliRC6hZz-1" edge="1">
          <mxGeometry relative="1" as="geometry" />
        </mxCell>
        <mxCell id="Xz4rIdycYfWdKF9P5o1K-3" value="Подтверждение&lt;div&gt;доступа&lt;/div&gt;" style="edgeLabel;html=1;align=center;verticalAlign=middle;resizable=0;points=[];" parent="Xz4rIdycYfWdKF9P5o1K-2" vertex="1" connectable="0">
          <mxGeometry x="-0.2047" relative="1" as="geometry">
            <mxPoint x="30" y="-43" as="offset" />
          </mxGeometry>
        </mxCell>
        <mxCell id="WXEK_f4MuJdovsrNe0ox-0" value="" style="edgeStyle=orthogonalEdgeStyle;rounded=0;orthogonalLoop=1;jettySize=auto;html=1;" parent="b5BTlqF_XiyDX51yJmQx-1" source="3UPLpKH7urRyliRC6hZz-1" target="3UPLpKH7urRyliRC6hZz-4" edge="1">
          <mxGeometry relative="1" as="geometry" />
        </mxCell>
        <mxCell id="WXEK_f4MuJdovsrNe0ox-1" value="Подтверждение&lt;div&gt;запроса на&lt;/div&gt;&lt;div&gt;транзакцию&lt;/div&gt;" style="edgeLabel;html=1;align=center;verticalAlign=middle;resizable=0;points=[];" parent="WXEK_f4MuJdovsrNe0ox-0" vertex="1" connectable="0">
          <mxGeometry x="-0.1185" y="-1" relative="1" as="geometry">
            <mxPoint x="41" y="-65" as="offset" />
          </mxGeometry>
        </mxCell>
        <mxCell id="WXEK_f4MuJdovsrNe0ox-2" value="" style="edgeStyle=orthogonalEdgeStyle;rounded=0;orthogonalLoop=1;jettySize=auto;html=1;" parent="b5BTlqF_XiyDX51yJmQx-1" source="3UPLpKH7urRyliRC6hZz-4" target="3UPLpKH7urRyliRC6hZz-7" edge="1">
          <mxGeometry relative="1" as="geometry" />
        </mxCell>
        <mxCell id="WXEK_f4MuJdovsrNe0ox-3" value="Выполненная&lt;div&gt;транзакция&lt;/div&gt;" style="edgeLabel;html=1;align=center;verticalAlign=middle;resizable=0;points=[];" parent="WXEK_f4MuJdovsrNe0ox-2" vertex="1" connectable="0">
          <mxGeometry x="-0.3427" y="2" relative="1" as="geometry">
            <mxPoint x="38" y="-32" as="offset" />
          </mxGeometry>
        </mxCell>
        <mxCell id="WXEK_f4MuJdovsrNe0ox-4" value="" style="edgeStyle=orthogonalEdgeStyle;rounded=0;orthogonalLoop=1;jettySize=auto;html=1;exitX=1;exitY=0.75;exitDx=0;exitDy=0;" parent="b5BTlqF_XiyDX51yJmQx-1" source="3UPLpKH7urRyliRC6hZz-7" target="3UPLpKH7urRyliRC6hZz-10" edge="1">
          <mxGeometry relative="1" as="geometry">
            <Array as="points">
              <mxPoint x="1240" y="590" />
              <mxPoint x="1280" y="590" />
              <mxPoint x="1280" y="620" />
            </Array>
          </mxGeometry>
        </mxCell>
        <mxCell id="WXEK_f4MuJdovsrNe0ox-5" value="Данные для&lt;div&gt;аналитики&lt;/div&gt;" style="edgeLabel;html=1;align=center;verticalAlign=middle;resizable=0;points=[];" parent="WXEK_f4MuJdovsrNe0ox-4" vertex="1" connectable="0">
          <mxGeometry x="-0.1272" relative="1" as="geometry">
            <mxPoint x="-2" y="50" as="offset" />
          </mxGeometry>
        </mxCell>
        <mxCell id="WXEK_f4MuJdovsrNe0ox-6" value="" style="edgeStyle=orthogonalEdgeStyle;rounded=0;orthogonalLoop=1;jettySize=auto;html=1;" parent="b5BTlqF_XiyDX51yJmQx-1" source="3UPLpKH7urRyliRC6hZz-7" target="3UPLpKH7urRyliRC6hZz-10" edge="1">
          <mxGeometry relative="1" as="geometry">
            <Array as="points">
              <mxPoint x="1280" y="540" />
              <mxPoint x="1280" y="570" />
            </Array>
          </mxGeometry>
        </mxCell>
        <mxCell id="WXEK_f4MuJdovsrNe0ox-7" value="Проведённое&lt;div&gt;логгирование&lt;/div&gt;" style="edgeLabel;html=1;align=center;verticalAlign=middle;resizable=0;points=[];" parent="WXEK_f4MuJdovsrNe0ox-6" vertex="1" connectable="0">
          <mxGeometry x="-0.0564" y="-1" relative="1" as="geometry">
            <mxPoint x="41" y="-32" as="offset" />
          </mxGeometry>
        </mxCell>
        <mxCell id="7U9I7kjziBKJWzjfqByN-0" value="" style="endArrow=classic;html=1;rounded=0;flowAnimation=0;shadow=0;" parent="b5BTlqF_XiyDX51yJmQx-1" edge="1">
          <mxGeometry width="50" height="50" relative="1" as="geometry">
            <mxPoint x="1520" y="561.66" as="sourcePoint" />
            <mxPoint x="1640" y="561.66" as="targetPoint" />
          </mxGeometry>
        </mxCell>
        <mxCell id="7U9I7kjziBKJWzjfqByN-1" value="Результат&lt;div&gt;транзакции&lt;/div&gt;" style="edgeLabel;html=1;align=center;verticalAlign=middle;resizable=0;points=[];" parent="7U9I7kjziBKJWzjfqByN-0" vertex="1" connectable="0">
          <mxGeometry x="-0.1529" y="-1" relative="1" as="geometry">
            <mxPoint x="4" y="-21" as="offset" />
          </mxGeometry>
        </mxCell>
        <mxCell id="7U9I7kjziBKJWzjfqByN-2" value="" style="endArrow=classic;html=1;rounded=0;exitX=1;exitY=0.25;exitDx=0;exitDy=0;" parent="b5BTlqF_XiyDX51yJmQx-1" edge="1">
          <mxGeometry width="50" height="50" relative="1" as="geometry">
            <mxPoint x="1520" y="599.66" as="sourcePoint" />
            <mxPoint x="1640" y="599.66" as="targetPoint" />
          </mxGeometry>
        </mxCell>
        <mxCell id="7U9I7kjziBKJWzjfqByN-3" value="Обновлённый&lt;div&gt;портфель&lt;/div&gt;" style="edgeLabel;html=1;align=center;verticalAlign=middle;resizable=0;points=[];" parent="7U9I7kjziBKJWzjfqByN-2" vertex="1" connectable="0">
          <mxGeometry x="-0.1529" y="-1" relative="1" as="geometry">
            <mxPoint x="4" y="-21" as="offset" />
          </mxGeometry>
        </mxCell>
        <mxCell id="7U9I7kjziBKJWzjfqByN-4" value="" style="endArrow=classic;html=1;rounded=0;exitX=1;exitY=0.5;exitDx=0;exitDy=0;" parent="b5BTlqF_XiyDX51yJmQx-1" edge="1">
          <mxGeometry width="50" height="50" relative="1" as="geometry">
            <mxPoint x="1520" y="639.66" as="sourcePoint" />
            <mxPoint x="1640" y="639.66" as="targetPoint" />
          </mxGeometry>
        </mxCell>
        <mxCell id="7U9I7kjziBKJWzjfqByN-5" value="Обновлённый баланс&lt;div&gt;счёта&lt;/div&gt;" style="edgeLabel;html=1;align=center;verticalAlign=middle;resizable=0;points=[];" parent="7U9I7kjziBKJWzjfqByN-4" vertex="1" connectable="0">
          <mxGeometry x="-0.1529" y="-1" relative="1" as="geometry">
            <mxPoint x="24" y="-21" as="offset" />
          </mxGeometry>
        </mxCell>
        <mxCell id="7U9I7kjziBKJWzjfqByN-6" value="" style="endArrow=classic;html=1;rounded=0;exitX=1;exitY=1;exitDx=0;exitDy=0;" parent="b5BTlqF_XiyDX51yJmQx-1" edge="1">
          <mxGeometry width="50" height="50" relative="1" as="geometry">
            <mxPoint x="1520" y="677.6600000000001" as="sourcePoint" />
            <mxPoint x="1640" y="677.66" as="targetPoint" />
          </mxGeometry>
        </mxCell>
        <mxCell id="7U9I7kjziBKJWzjfqByN-7" value="Логи&lt;div&gt;операции&lt;/div&gt;" style="edgeLabel;html=1;align=center;verticalAlign=middle;resizable=0;points=[];" parent="7U9I7kjziBKJWzjfqByN-6" vertex="1" connectable="0">
          <mxGeometry x="-0.1529" y="-1" relative="1" as="geometry">
            <mxPoint x="4" y="-21" as="offset" />
          </mxGeometry>
        </mxCell>
        <mxCell id="OY4SHG6GWev0gY4r6gGZ-0" value="" style="endArrow=classic;html=1;rounded=0;entryX=0;entryY=1;entryDx=0;entryDy=0;" parent="b5BTlqF_XiyDX51yJmQx-1" edge="1">
          <mxGeometry width="50" height="50" relative="1" as="geometry">
            <mxPoint x="1359.9999999999998" y="800" as="sourcePoint" />
            <mxPoint x="1359.9999999999998" y="680" as="targetPoint" />
          </mxGeometry>
        </mxCell>
        <mxCell id="OY4SHG6GWev0gY4r6gGZ-1" value="Клиентское&lt;div&gt;приложение&lt;/div&gt;" style="edgeLabel;html=1;align=center;verticalAlign=middle;resizable=0;points=[];" parent="OY4SHG6GWev0gY4r6gGZ-0" vertex="1" connectable="0">
          <mxGeometry x="0.0846" relative="1" as="geometry">
            <mxPoint x="-40" y="45" as="offset" />
          </mxGeometry>
        </mxCell>
        <mxCell id="OY4SHG6GWev0gY4r6gGZ-2" value="" style="endArrow=classic;html=1;rounded=0;entryX=0;entryY=1;entryDx=0;entryDy=0;" parent="b5BTlqF_XiyDX51yJmQx-1" edge="1">
          <mxGeometry width="50" height="50" relative="1" as="geometry">
            <mxPoint x="1420.59" y="800" as="sourcePoint" />
            <mxPoint x="1420.59" y="680" as="targetPoint" />
          </mxGeometry>
        </mxCell>
        <mxCell id="OY4SHG6GWev0gY4r6gGZ-3" value="Сервер" style="edgeLabel;html=1;align=center;verticalAlign=middle;resizable=0;points=[];" parent="OY4SHG6GWev0gY4r6gGZ-2" vertex="1" connectable="0">
          <mxGeometry x="0.0846" relative="1" as="geometry">
            <mxPoint x="-30" y="45" as="offset" />
          </mxGeometry>
        </mxCell>
        <mxCell id="OY4SHG6GWev0gY4r6gGZ-4" value="" style="endArrow=classic;html=1;rounded=0;entryX=0;entryY=1;entryDx=0;entryDy=0;" parent="b5BTlqF_XiyDX51yJmQx-1" edge="1">
          <mxGeometry width="50" height="50" relative="1" as="geometry">
            <mxPoint x="1489.59" y="800" as="sourcePoint" />
            <mxPoint x="1489.59" y="680" as="targetPoint" />
          </mxGeometry>
        </mxCell>
        <mxCell id="OY4SHG6GWev0gY4r6gGZ-5" value="База&lt;br&gt;данных" style="edgeLabel;html=1;align=center;verticalAlign=middle;resizable=0;points=[];" parent="OY4SHG6GWev0gY4r6gGZ-4" vertex="1" connectable="0">
          <mxGeometry x="0.0846" relative="1" as="geometry">
            <mxPoint x="-30" y="45" as="offset" />
          </mxGeometry>
        </mxCell>
        <mxCell id="OY4SHG6GWev0gY4r6gGZ-6" value="" style="endArrow=classic;html=1;rounded=0;entryX=0;entryY=1;entryDx=0;entryDy=0;" parent="b5BTlqF_XiyDX51yJmQx-1" edge="1">
          <mxGeometry width="50" height="50" relative="1" as="geometry">
            <mxPoint x="1064" y="720" as="sourcePoint" />
            <mxPoint x="1064" y="600" as="targetPoint" />
          </mxGeometry>
        </mxCell>
        <mxCell id="OY4SHG6GWev0gY4r6gGZ-7" value="Логгер" style="edgeLabel;html=1;align=center;verticalAlign=middle;resizable=0;points=[];" parent="OY4SHG6GWev0gY4r6gGZ-6" vertex="1" connectable="0">
          <mxGeometry x="0.0846" relative="1" as="geometry">
            <mxPoint x="-26" y="45" as="offset" />
          </mxGeometry>
        </mxCell>
        <mxCell id="OY4SHG6GWev0gY4r6gGZ-8" value="" style="endArrow=classic;html=1;rounded=0;entryX=0.75;entryY=1;entryDx=0;entryDy=0;" parent="b5BTlqF_XiyDX51yJmQx-1" edge="1">
          <mxGeometry width="50" height="50" relative="1" as="geometry">
            <mxPoint x="1360" y="720" as="sourcePoint" />
            <mxPoint x="1214" y="600" as="targetPoint" />
            <Array as="points">
              <mxPoint x="1214" y="720" />
            </Array>
          </mxGeometry>
        </mxCell>
        <mxCell id="OY4SHG6GWev0gY4r6gGZ-9" value="" style="endArrow=classic;html=1;rounded=0;entryX=0.5;entryY=1;entryDx=0;entryDy=0;" parent="b5BTlqF_XiyDX51yJmQx-1" edge="1">
          <mxGeometry width="50" height="50" relative="1" as="geometry">
            <mxPoint x="1420" y="740" as="sourcePoint" />
            <mxPoint x="1159" y="600" as="targetPoint" />
            <Array as="points">
              <mxPoint x="1159" y="740" />
            </Array>
          </mxGeometry>
        </mxCell>
        <mxCell id="OY4SHG6GWev0gY4r6gGZ-10" value="" style="endArrow=classic;html=1;rounded=0;entryX=0.5;entryY=1;entryDx=0;entryDy=0;" parent="b5BTlqF_XiyDX51yJmQx-1" edge="1">
          <mxGeometry width="50" height="50" relative="1" as="geometry">
            <mxPoint x="1490" y="760" as="sourcePoint" />
            <mxPoint x="1114" y="600" as="targetPoint" />
            <Array as="points">
              <mxPoint x="1114" y="760" />
            </Array>
          </mxGeometry>
        </mxCell>
        <mxCell id="OY4SHG6GWev0gY4r6gGZ-12" value="" style="endArrow=classic;html=1;rounded=0;entryX=0.7;entryY=1;entryDx=0;entryDy=0;entryPerimeter=0;" parent="b5BTlqF_XiyDX51yJmQx-1" target="3UPLpKH7urRyliRC6hZz-4" edge="1">
          <mxGeometry width="50" height="50" relative="1" as="geometry">
            <mxPoint x="1161" y="740" as="sourcePoint" />
            <mxPoint x="900" y="600" as="targetPoint" />
            <Array as="points">
              <mxPoint x="900" y="740" />
            </Array>
          </mxGeometry>
        </mxCell>
        <mxCell id="OY4SHG6GWev0gY4r6gGZ-13" value="" style="endArrow=classic;html=1;rounded=0;" parent="b5BTlqF_XiyDX51yJmQx-1" edge="1">
          <mxGeometry width="50" height="50" relative="1" as="geometry">
            <mxPoint x="1136" y="760" as="sourcePoint" />
            <mxPoint x="800" y="520" as="targetPoint" />
            <Array as="points">
              <mxPoint x="800" y="760" />
            </Array>
          </mxGeometry>
        </mxCell>
        <mxCell id="OY4SHG6GWev0gY4r6gGZ-14" value="" style="endArrow=classic;html=1;rounded=0;" parent="b5BTlqF_XiyDX51yJmQx-1" edge="1">
          <mxGeometry width="50" height="50" relative="1" as="geometry">
            <mxPoint x="901" y="740" as="sourcePoint" />
            <mxPoint x="640" y="440" as="targetPoint" />
            <Array as="points">
              <mxPoint x="640" y="740" />
            </Array>
          </mxGeometry>
        </mxCell>
        <mxCell id="OY4SHG6GWev0gY4r6gGZ-15" value="" style="endArrow=classic;html=1;rounded=0;entryX=0.198;entryY=0.99;entryDx=0;entryDy=0;entryPerimeter=0;" parent="b5BTlqF_XiyDX51yJmQx-1" target="3UPLpKH7urRyliRC6hZz-1" edge="1">
          <mxGeometry width="50" height="50" relative="1" as="geometry">
            <mxPoint x="806" y="760" as="sourcePoint" />
            <mxPoint x="520" y="520" as="targetPoint" />
            <Array as="points">
              <mxPoint x="520" y="760" />
              <mxPoint x="520" y="640" />
            </Array>
          </mxGeometry>
        </mxCell>
        <mxCell id="OY4SHG6GWev0gY4r6gGZ-16" value="" style="endArrow=classic;html=1;rounded=0;" parent="b5BTlqF_XiyDX51yJmQx-1" edge="1">
          <mxGeometry width="50" height="50" relative="1" as="geometry">
            <mxPoint x="641" y="740" as="sourcePoint" />
            <mxPoint x="360" y="360" as="targetPoint" />
            <Array as="points">
              <mxPoint x="360" y="740" />
            </Array>
          </mxGeometry>
        </mxCell>
        <mxCell id="OY4SHG6GWev0gY4r6gGZ-17" value="" style="endArrow=classic;html=1;rounded=0;" parent="b5BTlqF_XiyDX51yJmQx-1" edge="1">
          <mxGeometry width="50" height="50" relative="1" as="geometry">
            <mxPoint x="546" y="760" as="sourcePoint" />
            <mxPoint x="240" y="360" as="targetPoint" />
            <Array as="points">
              <mxPoint x="240" y="760" />
            </Array>
          </mxGeometry>
        </mxCell>
        <mxCell id="eluAT-B3TFhLgXTUsBnF-0" value="" style="endArrow=classic;html=1;rounded=0;entryX=0;entryY=0;entryDx=0;entryDy=0;" parent="b5BTlqF_XiyDX51yJmQx-1" edge="1">
          <mxGeometry width="50" height="50" relative="1" as="geometry">
            <mxPoint x="299.5" y="120" as="sourcePoint" />
            <mxPoint x="299.5" y="240" as="targetPoint" />
          </mxGeometry>
        </mxCell>
        <mxCell id="eluAT-B3TFhLgXTUsBnF-1" value="Правила&lt;div&gt;работы&lt;/div&gt;&lt;div&gt;системы&lt;/div&gt;" style="edgeLabel;html=1;align=center;verticalAlign=middle;resizable=0;points=[];" parent="eluAT-B3TFhLgXTUsBnF-0" vertex="1" connectable="0">
          <mxGeometry x="-0.2027" relative="1" as="geometry">
            <mxPoint x="48" y="-28" as="offset" />
          </mxGeometry>
        </mxCell>
        <mxCell id="eluAT-B3TFhLgXTUsBnF-2" value="" style="endArrow=classic;html=1;rounded=0;entryX=0;entryY=0;entryDx=0;entryDy=0;" parent="b5BTlqF_XiyDX51yJmQx-1" edge="1">
          <mxGeometry width="50" height="50" relative="1" as="geometry">
            <mxPoint x="559.9999999999999" y="200" as="sourcePoint" />
            <mxPoint x="559.9999999999999" y="320" as="targetPoint" />
          </mxGeometry>
        </mxCell>
        <mxCell id="eluAT-B3TFhLgXTUsBnF-3" value="Регуляторные&lt;div&gt;требования&lt;/div&gt;" style="edgeLabel;html=1;align=center;verticalAlign=middle;resizable=0;points=[];" parent="eluAT-B3TFhLgXTUsBnF-2" vertex="1" connectable="0">
          <mxGeometry x="-0.2027" relative="1" as="geometry">
            <mxPoint x="50" y="-28" as="offset" />
          </mxGeometry>
        </mxCell>
        <mxCell id="eluAT-B3TFhLgXTUsBnF-4" value="" style="endArrow=classic;html=1;rounded=0;entryX=0;entryY=0;entryDx=0;entryDy=0;" parent="b5BTlqF_XiyDX51yJmQx-1" edge="1">
          <mxGeometry width="50" height="50" relative="1" as="geometry">
            <mxPoint x="658.2299999999999" y="200" as="sourcePoint" />
            <mxPoint x="658.2299999999999" y="320" as="targetPoint" />
          </mxGeometry>
        </mxCell>
        <mxCell id="eluAT-B3TFhLgXTUsBnF-5" value="Законы РБ" style="edgeLabel;html=1;align=center;verticalAlign=middle;resizable=0;points=[];" parent="eluAT-B3TFhLgXTUsBnF-4" vertex="1" connectable="0">
          <mxGeometry x="-0.2027" relative="1" as="geometry">
            <mxPoint x="42" y="-28" as="offset" />
          </mxGeometry>
        </mxCell>
        <mxCell id="eluAT-B3TFhLgXTUsBnF-6" value="" style="endArrow=classic;html=1;rounded=0;entryX=0.2;entryY=0;entryDx=0;entryDy=0;entryPerimeter=0;" parent="b5BTlqF_XiyDX51yJmQx-1" target="3UPLpKH7urRyliRC6hZz-1" edge="1">
          <mxGeometry width="50" height="50" relative="1" as="geometry">
            <mxPoint x="300" y="220" as="sourcePoint" />
            <mxPoint x="430" y="200" as="targetPoint" />
            <Array as="points">
              <mxPoint x="520" y="220" />
            </Array>
          </mxGeometry>
        </mxCell>
        <mxCell id="eluAT-B3TFhLgXTUsBnF-7" value="" style="endArrow=classic;html=1;rounded=0;entryX=0.5;entryY=0;entryDx=0;entryDy=0;" parent="b5BTlqF_XiyDX51yJmQx-1" target="3UPLpKH7urRyliRC6hZz-4" edge="1">
          <mxGeometry width="50" height="50" relative="1" as="geometry">
            <mxPoint x="520" y="280" as="sourcePoint" />
            <mxPoint x="830" y="280" as="targetPoint" />
            <Array as="points">
              <mxPoint x="860" y="280" />
            </Array>
          </mxGeometry>
        </mxCell>
        <mxCell id="eluAT-B3TFhLgXTUsBnF-8" value="" style="endArrow=classic;html=1;rounded=0;entryX=0.25;entryY=0;entryDx=0;entryDy=0;" parent="b5BTlqF_XiyDX51yJmQx-1" target="3UPLpKH7urRyliRC6hZz-7" edge="1">
          <mxGeometry width="50" height="50" relative="1" as="geometry">
            <mxPoint x="560" y="250" as="sourcePoint" />
            <mxPoint x="900" y="370" as="targetPoint" />
            <Array as="points">
              <mxPoint x="1090" y="250" />
            </Array>
          </mxGeometry>
        </mxCell>
        <mxCell id="eluAT-B3TFhLgXTUsBnF-9" value="" style="endArrow=classic;html=1;rounded=0;entryX=0.75;entryY=0;entryDx=0;entryDy=0;" parent="b5BTlqF_XiyDX51yJmQx-1" target="3UPLpKH7urRyliRC6hZz-7" edge="1">
          <mxGeometry width="50" height="50" relative="1" as="geometry">
            <mxPoint x="860" y="280" as="sourcePoint" />
            <mxPoint x="1200" y="400" as="targetPoint" />
            <Array as="points">
              <mxPoint x="1190" y="280" />
            </Array>
          </mxGeometry>
        </mxCell>
        <mxCell id="eluAT-B3TFhLgXTUsBnF-10" value="" style="endArrow=classic;html=1;rounded=0;entryX=0.5;entryY=0;entryDx=0;entryDy=0;" parent="b5BTlqF_XiyDX51yJmQx-1" target="3UPLpKH7urRyliRC6hZz-10" edge="1">
          <mxGeometry width="50" height="50" relative="1" as="geometry">
            <mxPoint x="1190" y="280" as="sourcePoint" />
            <mxPoint x="1520" y="480" as="targetPoint" />
            <Array as="points">
              <mxPoint x="1420" y="280" />
            </Array>
          </mxGeometry>
        </mxCell>
        <mxCell id="1aBb8o7HjAdhHFzqC_hD-0" value="" style="endArrow=classic;html=1;rounded=0;entryX=0;entryY=0;entryDx=0;entryDy=0;flowAnimation=0;shadow=0;" parent="b5BTlqF_XiyDX51yJmQx-1" edge="1">
          <mxGeometry width="50" height="50" relative="1" as="geometry">
            <mxPoint x="80" y="390" as="sourcePoint" />
            <mxPoint x="480" y="390" as="targetPoint" />
          </mxGeometry>
        </mxCell>
        <mxCell id="1aBb8o7HjAdhHFzqC_hD-1" value="Запрос на&lt;div&gt;транзакцию&lt;/div&gt;" style="edgeLabel;html=1;align=center;verticalAlign=middle;resizable=0;points=[];" parent="1aBb8o7HjAdhHFzqC_hD-0" vertex="1" connectable="0">
          <mxGeometry x="-0.1529" y="-1" relative="1" as="geometry">
            <mxPoint x="-110" y="-31" as="offset" />
          </mxGeometry>
        </mxCell>
        <mxCell id="o--3SJ0OOsom6mKMSKLB-0" value="" style="endArrow=classic;html=1;rounded=0;entryX=0;entryY=0.5;entryDx=0;entryDy=0;" parent="b5BTlqF_XiyDX51yJmQx-1" edge="1">
          <mxGeometry width="50" height="50" relative="1" as="geometry">
            <mxPoint x="80" y="430" as="sourcePoint" />
            <mxPoint x="480" y="430" as="targetPoint" />
          </mxGeometry>
        </mxCell>
        <mxCell id="o--3SJ0OOsom6mKMSKLB-1" value="Рыночные&lt;div&gt;данные&lt;/div&gt;" style="edgeLabel;html=1;align=center;verticalAlign=middle;resizable=0;points=[];" parent="o--3SJ0OOsom6mKMSKLB-0" vertex="1" connectable="0">
          <mxGeometry x="-0.1529" y="-1" relative="1" as="geometry">
            <mxPoint x="-110" y="-21" as="offset" />
          </mxGeometry>
        </mxCell>
      </root>
    </mxGraphModel>
  </diagram>
  <diagram id="cCikeV3VRjL8tRaUiCrT" name="A1">
    <mxGraphModel dx="2066" dy="1232" grid="1" gridSize="10" guides="1" tooltips="1" connect="1" arrows="1" fold="1" page="1" pageScale="1" pageWidth="850" pageHeight="1100" math="0" shadow="0">
      <root>
        <mxCell id="0" />
        <mxCell id="1" parent="0" />
        <mxCell id="ZhLpchQEN5bDFOLpJKOJ-1" value="" style="group" parent="1" vertex="1" connectable="0">
          <mxGeometry x="240" y="320" width="200" height="120" as="geometry" />
        </mxCell>
        <mxCell id="ZhLpchQEN5bDFOLpJKOJ-2" value="Проверить роль пользователя" style="rounded=0;whiteSpace=wrap;html=1;movable=1;resizable=1;rotatable=1;deletable=1;editable=1;locked=0;connectable=1;" parent="ZhLpchQEN5bDFOLpJKOJ-1" vertex="1">
          <mxGeometry width="199.99999999999997" height="119.99999999999999" as="geometry" />
        </mxCell>
        <mxCell id="ZhLpchQEN5bDFOLpJKOJ-3" value="&lt;font style=&quot;font-size: 10px;&quot;&gt;1&lt;/font&gt;" style="text;html=1;align=center;verticalAlign=middle;whiteSpace=wrap;rounded=0;movable=1;resizable=1;rotatable=1;deletable=1;editable=1;locked=0;connectable=1;" parent="ZhLpchQEN5bDFOLpJKOJ-1" vertex="1">
          <mxGeometry x="174.35897435897436" y="90" width="25.641025641025642" height="30" as="geometry" />
        </mxCell>
        <mxCell id="ZhLpchQEN5bDFOLpJKOJ-4" value="" style="group" parent="1" vertex="1" connectable="0">
          <mxGeometry x="520" y="400" width="200" height="120" as="geometry" />
        </mxCell>
        <mxCell id="ZhLpchQEN5bDFOLpJKOJ-5" value="Проверить права пользователя" style="rounded=0;whiteSpace=wrap;html=1;movable=1;resizable=1;rotatable=1;deletable=1;editable=1;locked=0;connectable=1;" parent="ZhLpchQEN5bDFOLpJKOJ-4" vertex="1">
          <mxGeometry width="199.99999999999997" height="119.99999999999999" as="geometry" />
        </mxCell>
        <mxCell id="ZhLpchQEN5bDFOLpJKOJ-6" value="&lt;font style=&quot;font-size: 10px;&quot;&gt;2&lt;/font&gt;" style="text;html=1;align=center;verticalAlign=middle;whiteSpace=wrap;rounded=0;movable=1;resizable=1;rotatable=1;deletable=1;editable=1;locked=0;connectable=1;" parent="ZhLpchQEN5bDFOLpJKOJ-4" vertex="1">
          <mxGeometry x="174.35897435897436" y="90" width="25.641025641025642" height="30" as="geometry" />
        </mxCell>
        <mxCell id="qsrCOE9rxE5byEFJNWg3-1" value="" style="endArrow=classic;html=1;rounded=0;entryX=0;entryY=0.25;entryDx=0;entryDy=0;" parent="1" edge="1">
          <mxGeometry width="50" height="50" relative="1" as="geometry">
            <mxPoint x="120" y="379.76" as="sourcePoint" />
            <mxPoint x="240" y="379.76" as="targetPoint" />
          </mxGeometry>
        </mxCell>
        <mxCell id="qsrCOE9rxE5byEFJNWg3-2" value="Данные&lt;div&gt;пользователя&lt;/div&gt;" style="edgeLabel;html=1;align=center;verticalAlign=middle;resizable=0;points=[];" parent="qsrCOE9rxE5byEFJNWg3-1" vertex="1" connectable="0">
          <mxGeometry x="-0.1529" y="-1" relative="1" as="geometry">
            <mxPoint x="4" y="-21" as="offset" />
          </mxGeometry>
        </mxCell>
        <mxCell id="gBPgAD9iz0M3QF0ApY4s-1" value="" style="endArrow=classic;html=1;rounded=0;entryX=0;entryY=0;entryDx=0;entryDy=0;" parent="1" edge="1">
          <mxGeometry width="50" height="50" relative="1" as="geometry">
            <mxPoint x="330" y="200" as="sourcePoint" />
            <mxPoint x="330" y="320" as="targetPoint" />
          </mxGeometry>
        </mxCell>
        <mxCell id="gBPgAD9iz0M3QF0ApY4s-2" value="Правила&lt;div&gt;работы&lt;/div&gt;&lt;div&gt;системы&lt;/div&gt;" style="edgeLabel;html=1;align=center;verticalAlign=middle;resizable=0;points=[];" parent="gBPgAD9iz0M3QF0ApY4s-1" vertex="1" connectable="0">
          <mxGeometry x="-0.2027" relative="1" as="geometry">
            <mxPoint x="48" y="-28" as="offset" />
          </mxGeometry>
        </mxCell>
        <mxCell id="4ZK3ljSiQEaA5nd69vm_-1" value="" style="endArrow=classic;html=1;rounded=0;entryX=0;entryY=1;entryDx=0;entryDy=0;" parent="1" edge="1">
          <mxGeometry width="50" height="50" relative="1" as="geometry">
            <mxPoint x="586.5899999999999" y="640" as="sourcePoint" />
            <mxPoint x="586.5899999999999" y="520" as="targetPoint" />
          </mxGeometry>
        </mxCell>
        <mxCell id="4ZK3ljSiQEaA5nd69vm_-2" value="Сервер" style="edgeLabel;html=1;align=center;verticalAlign=middle;resizable=0;points=[];" parent="4ZK3ljSiQEaA5nd69vm_-1" vertex="1" connectable="0">
          <mxGeometry x="0.0846" relative="1" as="geometry">
            <mxPoint x="-30" y="45" as="offset" />
          </mxGeometry>
        </mxCell>
        <mxCell id="4ZK3ljSiQEaA5nd69vm_-3" value="" style="endArrow=classic;html=1;rounded=0;entryX=0;entryY=1;entryDx=0;entryDy=0;" parent="1" edge="1">
          <mxGeometry width="50" height="50" relative="1" as="geometry">
            <mxPoint x="655.5899999999999" y="640" as="sourcePoint" />
            <mxPoint x="655.5899999999999" y="520" as="targetPoint" />
          </mxGeometry>
        </mxCell>
        <mxCell id="4ZK3ljSiQEaA5nd69vm_-4" value="База&lt;br&gt;данных" style="edgeLabel;html=1;align=center;verticalAlign=middle;resizable=0;points=[];" parent="4ZK3ljSiQEaA5nd69vm_-3" vertex="1" connectable="0">
          <mxGeometry x="0.0846" relative="1" as="geometry">
            <mxPoint x="-30" y="45" as="offset" />
          </mxGeometry>
        </mxCell>
        <mxCell id="4ZK3ljSiQEaA5nd69vm_-5" value="" style="endArrow=classic;html=1;rounded=0;entryX=0.75;entryY=1;entryDx=0;entryDy=0;" parent="1" target="ZhLpchQEN5bDFOLpJKOJ-2" edge="1">
          <mxGeometry width="50" height="50" relative="1" as="geometry">
            <mxPoint x="586" y="580" as="sourcePoint" />
            <mxPoint x="325" y="440" as="targetPoint" />
            <Array as="points">
              <mxPoint x="390" y="580" />
            </Array>
          </mxGeometry>
        </mxCell>
        <mxCell id="4ZK3ljSiQEaA5nd69vm_-6" value="" style="endArrow=classic;html=1;rounded=0;entryX=0.25;entryY=1;entryDx=0;entryDy=0;" parent="1" target="ZhLpchQEN5bDFOLpJKOJ-2" edge="1">
          <mxGeometry width="50" height="50" relative="1" as="geometry">
            <mxPoint x="656" y="600" as="sourcePoint" />
            <mxPoint x="280" y="440" as="targetPoint" />
            <Array as="points">
              <mxPoint x="290" y="600" />
            </Array>
          </mxGeometry>
        </mxCell>
        <mxCell id="4ZK3ljSiQEaA5nd69vm_-7" value="" style="edgeStyle=orthogonalEdgeStyle;rounded=0;orthogonalLoop=1;jettySize=auto;html=1;" parent="1" source="ZhLpchQEN5bDFOLpJKOJ-2" target="ZhLpchQEN5bDFOLpJKOJ-5" edge="1">
          <mxGeometry relative="1" as="geometry" />
        </mxCell>
        <mxCell id="4ZK3ljSiQEaA5nd69vm_-8" value="Роль&lt;div&gt;пользователя&lt;/div&gt;" style="edgeLabel;html=1;align=center;verticalAlign=middle;resizable=0;points=[];" parent="4ZK3ljSiQEaA5nd69vm_-7" vertex="1" connectable="0">
          <mxGeometry x="-0.2893" relative="1" as="geometry">
            <mxPoint x="40" y="-37" as="offset" />
          </mxGeometry>
        </mxCell>
        <mxCell id="w_lQ9yThhw3Omtr2ZQJr-1" value="" style="endArrow=classic;html=1;rounded=0;flowAnimation=0;shadow=0;" parent="1" edge="1">
          <mxGeometry width="50" height="50" relative="1" as="geometry">
            <mxPoint x="720" y="459.71" as="sourcePoint" />
            <mxPoint x="840" y="459.71" as="targetPoint" />
          </mxGeometry>
        </mxCell>
        <mxCell id="w_lQ9yThhw3Omtr2ZQJr-2" value="Подтверждение&lt;div&gt;доступа&lt;/div&gt;" style="edgeLabel;html=1;align=center;verticalAlign=middle;resizable=0;points=[];" parent="w_lQ9yThhw3Omtr2ZQJr-1" vertex="1" connectable="0">
          <mxGeometry x="-0.1529" y="-1" relative="1" as="geometry">
            <mxPoint x="4" y="-21" as="offset" />
          </mxGeometry>
        </mxCell>
        <mxCell id="peikRDavFkJSfJG_PiZH-1" value="" style="endArrow=classic;html=1;rounded=0;entryX=0.5;entryY=0;entryDx=0;entryDy=0;" parent="1" target="ZhLpchQEN5bDFOLpJKOJ-5" edge="1">
          <mxGeometry width="50" height="50" relative="1" as="geometry">
            <mxPoint x="330" y="280" as="sourcePoint" />
            <mxPoint x="550" y="380" as="targetPoint" />
            <Array as="points">
              <mxPoint x="620" y="280" />
            </Array>
          </mxGeometry>
        </mxCell>
      </root>
    </mxGraphModel>
  </diagram>
  <diagram id="g7DskMOcOejOhYOSJ3I_" name="A2">
    <mxGraphModel dx="2066" dy="1232" grid="1" gridSize="10" guides="1" tooltips="1" connect="1" arrows="1" fold="1" page="1" pageScale="1" pageWidth="850" pageHeight="1100" math="0" shadow="0">
      <root>
        <mxCell id="0" />
        <mxCell id="1" parent="0" />
        <mxCell id="xLtLBKU-u5OmyZaBZFYP-1" value="" style="group" parent="1" vertex="1" connectable="0">
          <mxGeometry x="160" y="280" width="200" height="120" as="geometry" />
        </mxCell>
        <mxCell id="xLtLBKU-u5OmyZaBZFYP-2" value="Проверить подтверждение&lt;div&gt;доступа&lt;/div&gt;" style="rounded=0;whiteSpace=wrap;html=1;movable=1;resizable=1;rotatable=1;deletable=1;editable=1;locked=0;connectable=1;" parent="xLtLBKU-u5OmyZaBZFYP-1" vertex="1">
          <mxGeometry width="199.99999999999997" height="119.99999999999999" as="geometry" />
        </mxCell>
        <mxCell id="xLtLBKU-u5OmyZaBZFYP-3" value="&lt;font style=&quot;font-size: 10px;&quot;&gt;1&lt;/font&gt;" style="text;html=1;align=center;verticalAlign=middle;whiteSpace=wrap;rounded=0;movable=1;resizable=1;rotatable=1;deletable=1;editable=1;locked=0;connectable=1;" parent="xLtLBKU-u5OmyZaBZFYP-1" vertex="1">
          <mxGeometry x="174.35897435897436" y="90" width="25.641025641025642" height="30" as="geometry" />
        </mxCell>
        <mxCell id="0nsnXfFDFiNZVOsSZSWg-1" value="" style="endArrow=classic;html=1;rounded=0;flowAnimation=0;shadow=0;" parent="1" edge="1">
          <mxGeometry width="50" height="50" relative="1" as="geometry">
            <mxPoint x="40" y="339.65999999999997" as="sourcePoint" />
            <mxPoint x="160" y="339.65999999999997" as="targetPoint" />
          </mxGeometry>
        </mxCell>
        <mxCell id="0nsnXfFDFiNZVOsSZSWg-2" value="Подтверждение&lt;div&gt;доступа&lt;/div&gt;" style="edgeLabel;html=1;align=center;verticalAlign=middle;resizable=0;points=[];" parent="0nsnXfFDFiNZVOsSZSWg-1" vertex="1" connectable="0">
          <mxGeometry x="-0.1529" y="-1" relative="1" as="geometry">
            <mxPoint x="4" y="-21" as="offset" />
          </mxGeometry>
        </mxCell>
        <mxCell id="w0XgMzcNa4mOw48vcYyv-1" value="" style="group" parent="1" vertex="1" connectable="0">
          <mxGeometry x="440" y="360" width="200" height="120" as="geometry" />
        </mxCell>
        <mxCell id="w0XgMzcNa4mOw48vcYyv-2" value="Проверить валидность запрашиваемой транзакции" style="rounded=0;whiteSpace=wrap;html=1;movable=1;resizable=1;rotatable=1;deletable=1;editable=1;locked=0;connectable=1;" parent="w0XgMzcNa4mOw48vcYyv-1" vertex="1">
          <mxGeometry width="199.99999999999997" height="119.99999999999999" as="geometry" />
        </mxCell>
        <mxCell id="w0XgMzcNa4mOw48vcYyv-3" value="&lt;font style=&quot;font-size: 10px;&quot;&gt;2&lt;/font&gt;" style="text;html=1;align=center;verticalAlign=middle;whiteSpace=wrap;rounded=0;movable=1;resizable=1;rotatable=1;deletable=1;editable=1;locked=0;connectable=1;" parent="w0XgMzcNa4mOw48vcYyv-1" vertex="1">
          <mxGeometry x="174.35897435897436" y="90" width="25.641025641025642" height="30" as="geometry" />
        </mxCell>
        <mxCell id="U7on5hyhgHgbYEDeBLYW-1" value="" style="edgeStyle=orthogonalEdgeStyle;rounded=0;orthogonalLoop=1;jettySize=auto;html=1;entryX=0;entryY=0.25;entryDx=0;entryDy=0;" parent="1" source="xLtLBKU-u5OmyZaBZFYP-2" target="w0XgMzcNa4mOw48vcYyv-2" edge="1">
          <mxGeometry relative="1" as="geometry" />
        </mxCell>
        <mxCell id="U7on5hyhgHgbYEDeBLYW-2" value="Наличие&lt;div&gt;подтверждения&lt;div&gt;доступа&lt;/div&gt;&lt;/div&gt;" style="edgeLabel;html=1;align=center;verticalAlign=middle;resizable=0;points=[];" parent="U7on5hyhgHgbYEDeBLYW-1" vertex="1" connectable="0">
          <mxGeometry x="-0.2552" y="1" relative="1" as="geometry">
            <mxPoint x="29" y="-49" as="offset" />
          </mxGeometry>
        </mxCell>
        <mxCell id="U0U9v1GzLc6cFXhKMlbZ-1" value="" style="endArrow=classic;html=1;rounded=0;entryX=0;entryY=0;entryDx=0;entryDy=0;flowAnimation=0;shadow=0;" parent="1" edge="1">
          <mxGeometry width="50" height="50" relative="1" as="geometry">
            <mxPoint x="40" y="430" as="sourcePoint" />
            <mxPoint x="440" y="430" as="targetPoint" />
          </mxGeometry>
        </mxCell>
        <mxCell id="U0U9v1GzLc6cFXhKMlbZ-2" value="Запрос на&lt;div&gt;транзакцию&lt;/div&gt;" style="edgeLabel;html=1;align=center;verticalAlign=middle;resizable=0;points=[];" parent="U0U9v1GzLc6cFXhKMlbZ-1" vertex="1" connectable="0">
          <mxGeometry x="-0.1529" y="-1" relative="1" as="geometry">
            <mxPoint x="-110" y="-31" as="offset" />
          </mxGeometry>
        </mxCell>
        <mxCell id="U0U9v1GzLc6cFXhKMlbZ-3" value="" style="endArrow=classic;html=1;rounded=0;entryX=0;entryY=0.5;entryDx=0;entryDy=0;" parent="1" edge="1">
          <mxGeometry width="50" height="50" relative="1" as="geometry">
            <mxPoint x="40" y="470" as="sourcePoint" />
            <mxPoint x="440" y="470" as="targetPoint" />
          </mxGeometry>
        </mxCell>
        <mxCell id="U0U9v1GzLc6cFXhKMlbZ-4" value="Рыночные&lt;div&gt;данные&lt;/div&gt;" style="edgeLabel;html=1;align=center;verticalAlign=middle;resizable=0;points=[];" parent="U0U9v1GzLc6cFXhKMlbZ-3" vertex="1" connectable="0">
          <mxGeometry x="-0.1529" y="-1" relative="1" as="geometry">
            <mxPoint x="-110" y="-21" as="offset" />
          </mxGeometry>
        </mxCell>
        <mxCell id="-AT3hLHV1XVALEJR8lip-1" value="" style="endArrow=classic;html=1;rounded=0;flowAnimation=0;shadow=0;" parent="1" edge="1">
          <mxGeometry width="50" height="50" relative="1" as="geometry">
            <mxPoint x="640" y="419.5" as="sourcePoint" />
            <mxPoint x="760" y="419.5" as="targetPoint" />
          </mxGeometry>
        </mxCell>
        <mxCell id="-AT3hLHV1XVALEJR8lip-2" value="Подтверждение&lt;div&gt;запроса на&lt;/div&gt;&lt;div&gt;транзакцию&lt;/div&gt;" style="edgeLabel;html=1;align=center;verticalAlign=middle;resizable=0;points=[];" parent="-AT3hLHV1XVALEJR8lip-1" vertex="1" connectable="0">
          <mxGeometry x="-0.1529" y="-1" relative="1" as="geometry">
            <mxPoint x="4" y="-30" as="offset" />
          </mxGeometry>
        </mxCell>
        <mxCell id="pUPNYCFQlvQ8ai5BUiWE-1" value="" style="endArrow=classic;html=1;rounded=0;entryX=0;entryY=0;entryDx=0;entryDy=0;" parent="1" edge="1">
          <mxGeometry width="50" height="50" relative="1" as="geometry">
            <mxPoint x="260" y="160" as="sourcePoint" />
            <mxPoint x="260" y="280" as="targetPoint" />
          </mxGeometry>
        </mxCell>
        <mxCell id="pUPNYCFQlvQ8ai5BUiWE-2" value="Правила&lt;div&gt;работы&lt;/div&gt;&lt;div&gt;системы&lt;/div&gt;" style="edgeLabel;html=1;align=center;verticalAlign=middle;resizable=0;points=[];" parent="pUPNYCFQlvQ8ai5BUiWE-1" vertex="1" connectable="0">
          <mxGeometry x="-0.2027" relative="1" as="geometry">
            <mxPoint x="48" y="-28" as="offset" />
          </mxGeometry>
        </mxCell>
        <mxCell id="pUPNYCFQlvQ8ai5BUiWE-3" value="" style="endArrow=classic;html=1;rounded=0;entryX=0;entryY=0;entryDx=0;entryDy=0;" parent="1" edge="1">
          <mxGeometry width="50" height="50" relative="1" as="geometry">
            <mxPoint x="520.4999999999999" y="240" as="sourcePoint" />
            <mxPoint x="520.4999999999999" y="360" as="targetPoint" />
          </mxGeometry>
        </mxCell>
        <mxCell id="pUPNYCFQlvQ8ai5BUiWE-4" value="Регуляторные&lt;div&gt;требования&lt;/div&gt;" style="edgeLabel;html=1;align=center;verticalAlign=middle;resizable=0;points=[];" parent="pUPNYCFQlvQ8ai5BUiWE-3" vertex="1" connectable="0">
          <mxGeometry x="-0.2027" relative="1" as="geometry">
            <mxPoint x="50" y="-28" as="offset" />
          </mxGeometry>
        </mxCell>
        <mxCell id="pUPNYCFQlvQ8ai5BUiWE-5" value="" style="endArrow=classic;html=1;rounded=0;entryX=0;entryY=0;entryDx=0;entryDy=0;" parent="1" edge="1">
          <mxGeometry width="50" height="50" relative="1" as="geometry">
            <mxPoint x="618.7299999999999" y="240" as="sourcePoint" />
            <mxPoint x="618.7299999999999" y="360" as="targetPoint" />
          </mxGeometry>
        </mxCell>
        <mxCell id="pUPNYCFQlvQ8ai5BUiWE-6" value="Законы РБ" style="edgeLabel;html=1;align=center;verticalAlign=middle;resizable=0;points=[];" parent="pUPNYCFQlvQ8ai5BUiWE-5" vertex="1" connectable="0">
          <mxGeometry x="-0.2027" relative="1" as="geometry">
            <mxPoint x="42" y="-28" as="offset" />
          </mxGeometry>
        </mxCell>
        <mxCell id="pUPNYCFQlvQ8ai5BUiWE-7" value="" style="endArrow=classic;html=1;rounded=0;entryX=0.2;entryY=0;entryDx=0;entryDy=0;entryPerimeter=0;" parent="1" edge="1">
          <mxGeometry width="50" height="50" relative="1" as="geometry">
            <mxPoint x="260.5" y="260" as="sourcePoint" />
            <mxPoint x="480.5" y="360" as="targetPoint" />
            <Array as="points">
              <mxPoint x="480.5" y="260" />
            </Array>
          </mxGeometry>
        </mxCell>
        <mxCell id="URGTxBcua2uhw38qzQVF-1" value="" style="endArrow=classic;html=1;rounded=0;entryX=0.25;entryY=1;entryDx=0;entryDy=0;" parent="1" target="w0XgMzcNa4mOw48vcYyv-2" edge="1">
          <mxGeometry width="50" height="50" relative="1" as="geometry">
            <mxPoint x="490" y="600" as="sourcePoint" />
            <mxPoint x="516.5899999999999" y="480" as="targetPoint" />
          </mxGeometry>
        </mxCell>
        <mxCell id="URGTxBcua2uhw38qzQVF-2" value="Сервер" style="edgeLabel;html=1;align=center;verticalAlign=middle;resizable=0;points=[];" parent="URGTxBcua2uhw38qzQVF-1" vertex="1" connectable="0">
          <mxGeometry x="0.0846" relative="1" as="geometry">
            <mxPoint x="-30" y="45" as="offset" />
          </mxGeometry>
        </mxCell>
        <mxCell id="URGTxBcua2uhw38qzQVF-3" value="" style="endArrow=classic;html=1;rounded=0;entryX=0.75;entryY=1;entryDx=0;entryDy=0;" parent="1" target="w0XgMzcNa4mOw48vcYyv-2" edge="1">
          <mxGeometry width="50" height="50" relative="1" as="geometry">
            <mxPoint x="590" y="600" as="sourcePoint" />
            <mxPoint x="585.5899999999999" y="480" as="targetPoint" />
          </mxGeometry>
        </mxCell>
        <mxCell id="URGTxBcua2uhw38qzQVF-4" value="База&lt;br&gt;данных" style="edgeLabel;html=1;align=center;verticalAlign=middle;resizable=0;points=[];" parent="URGTxBcua2uhw38qzQVF-3" vertex="1" connectable="0">
          <mxGeometry x="0.0846" relative="1" as="geometry">
            <mxPoint x="-30" y="45" as="offset" />
          </mxGeometry>
        </mxCell>
        <mxCell id="URGTxBcua2uhw38qzQVF-5" value="" style="endArrow=classic;html=1;rounded=0;entryX=0.75;entryY=1;entryDx=0;entryDy=0;" parent="1" target="xLtLBKU-u5OmyZaBZFYP-2" edge="1">
          <mxGeometry width="50" height="50" relative="1" as="geometry">
            <mxPoint x="490" y="540" as="sourcePoint" />
            <mxPoint x="255" y="400" as="targetPoint" />
            <Array as="points">
              <mxPoint x="310" y="540" />
            </Array>
          </mxGeometry>
        </mxCell>
        <mxCell id="URGTxBcua2uhw38qzQVF-6" value="" style="endArrow=classic;html=1;rounded=0;entryX=0.25;entryY=1;entryDx=0;entryDy=0;" parent="1" target="xLtLBKU-u5OmyZaBZFYP-2" edge="1">
          <mxGeometry width="50" height="50" relative="1" as="geometry">
            <mxPoint x="590" y="560" as="sourcePoint" />
            <mxPoint x="210" y="400" as="targetPoint" />
            <Array as="points">
              <mxPoint x="210" y="560" />
            </Array>
          </mxGeometry>
        </mxCell>
      </root>
    </mxGraphModel>
  </diagram>
  <diagram id="k5PObMA7Om-8jMGlE1WW" name="A3">
    <mxGraphModel dx="2066" dy="1232" grid="1" gridSize="10" guides="1" tooltips="1" connect="1" arrows="1" fold="1" page="1" pageScale="1" pageWidth="850" pageHeight="1100" math="0" shadow="0">
      <root>
        <mxCell id="0" />
        <mxCell id="1" parent="0" />
        <mxCell id="JQsjH-k5fXQEeR4jvb6v-1" value="" style="group" parent="1" vertex="1" connectable="0">
          <mxGeometry x="280" y="360" width="200" height="120" as="geometry" />
        </mxCell>
        <mxCell id="JQsjH-k5fXQEeR4jvb6v-2" value="&lt;div&gt;Рассчитать стоимости операции&lt;/div&gt;" style="rounded=0;whiteSpace=wrap;html=1;movable=1;resizable=1;rotatable=1;deletable=1;editable=1;locked=0;connectable=1;" parent="JQsjH-k5fXQEeR4jvb6v-1" vertex="1">
          <mxGeometry width="199.99999999999997" height="119.99999999999999" as="geometry" />
        </mxCell>
        <mxCell id="JQsjH-k5fXQEeR4jvb6v-3" value="&lt;span style=&quot;font-size: 10px;&quot;&gt;1&lt;/span&gt;" style="text;html=1;align=center;verticalAlign=middle;whiteSpace=wrap;rounded=0;movable=1;resizable=1;rotatable=1;deletable=1;editable=1;locked=0;connectable=1;" parent="JQsjH-k5fXQEeR4jvb6v-1" vertex="1">
          <mxGeometry x="174.35897435897436" y="90" width="25.641025641025642" height="30" as="geometry" />
        </mxCell>
        <mxCell id="heTIHdheVUXqxBtNK5Cm-1" value="" style="endArrow=classic;html=1;rounded=0;entryX=0;entryY=0.25;entryDx=0;entryDy=0;" parent="1" edge="1">
          <mxGeometry width="50" height="50" relative="1" as="geometry">
            <mxPoint x="160" y="419.65999999999997" as="sourcePoint" />
            <mxPoint x="280" y="419.65999999999997" as="targetPoint" />
          </mxGeometry>
        </mxCell>
        <mxCell id="heTIHdheVUXqxBtNK5Cm-2" value="Подтверждение&lt;div&gt;запроса на&lt;/div&gt;&lt;div&gt;транзакцию&lt;/div&gt;" style="edgeLabel;html=1;align=center;verticalAlign=middle;resizable=0;points=[];" parent="heTIHdheVUXqxBtNK5Cm-1" vertex="1" connectable="0">
          <mxGeometry x="-0.1529" y="-1" relative="1" as="geometry">
            <mxPoint x="9" y="-31" as="offset" />
          </mxGeometry>
        </mxCell>
        <mxCell id="5eMM3qvNRYpljqZUuPz5-1" value="" style="group" parent="1" vertex="1" connectable="0">
          <mxGeometry x="560" y="440" width="200" height="120" as="geometry" />
        </mxCell>
        <mxCell id="5eMM3qvNRYpljqZUuPz5-2" value="&lt;div&gt;Проверить финансовые ограничения&lt;/div&gt;" style="rounded=0;whiteSpace=wrap;html=1;movable=1;resizable=1;rotatable=1;deletable=1;editable=1;locked=0;connectable=1;" parent="5eMM3qvNRYpljqZUuPz5-1" vertex="1">
          <mxGeometry width="199.99999999999997" height="119.99999999999999" as="geometry" />
        </mxCell>
        <mxCell id="5eMM3qvNRYpljqZUuPz5-3" value="&lt;span style=&quot;font-size: 10px;&quot;&gt;2&lt;/span&gt;" style="text;html=1;align=center;verticalAlign=middle;whiteSpace=wrap;rounded=0;movable=1;resizable=1;rotatable=1;deletable=1;editable=1;locked=0;connectable=1;" parent="5eMM3qvNRYpljqZUuPz5-1" vertex="1">
          <mxGeometry x="174.35897435897436" y="90" width="25.641025641025642" height="30" as="geometry" />
        </mxCell>
        <mxCell id="5eMM3qvNRYpljqZUuPz5-4" value="" style="group" parent="1" vertex="1" connectable="0">
          <mxGeometry x="840" y="520" width="200" height="120" as="geometry" />
        </mxCell>
        <mxCell id="5eMM3qvNRYpljqZUuPz5-5" value="&lt;div&gt;Обновить финансовые счета&lt;/div&gt;" style="rounded=0;whiteSpace=wrap;html=1;movable=1;resizable=1;rotatable=1;deletable=1;editable=1;locked=0;connectable=1;" parent="5eMM3qvNRYpljqZUuPz5-4" vertex="1">
          <mxGeometry width="199.99999999999997" height="119.99999999999999" as="geometry" />
        </mxCell>
        <mxCell id="5eMM3qvNRYpljqZUuPz5-6" value="&lt;span style=&quot;font-size: 10px;&quot;&gt;3&lt;/span&gt;" style="text;html=1;align=center;verticalAlign=middle;whiteSpace=wrap;rounded=0;movable=1;resizable=1;rotatable=1;deletable=1;editable=1;locked=0;connectable=1;" parent="5eMM3qvNRYpljqZUuPz5-4" vertex="1">
          <mxGeometry x="174.35897435897436" y="90" width="25.641025641025642" height="30" as="geometry" />
        </mxCell>
        <mxCell id="ZkqPVdoJrbLy8ZKb7JtJ-1" value="" style="group" parent="1" vertex="1" connectable="0">
          <mxGeometry x="1120" y="600" width="200" height="120" as="geometry" />
        </mxCell>
        <mxCell id="ZkqPVdoJrbLy8ZKb7JtJ-2" value="&lt;div&gt;Обновить портфель акций&lt;/div&gt;" style="rounded=0;whiteSpace=wrap;html=1;movable=1;resizable=1;rotatable=1;deletable=1;editable=1;locked=0;connectable=1;" parent="ZkqPVdoJrbLy8ZKb7JtJ-1" vertex="1">
          <mxGeometry width="199.99999999999997" height="119.99999999999999" as="geometry" />
        </mxCell>
        <mxCell id="ZkqPVdoJrbLy8ZKb7JtJ-3" value="&lt;span style=&quot;font-size: 10px;&quot;&gt;4&lt;/span&gt;" style="text;html=1;align=center;verticalAlign=middle;whiteSpace=wrap;rounded=0;movable=1;resizable=1;rotatable=1;deletable=1;editable=1;locked=0;connectable=1;" parent="ZkqPVdoJrbLy8ZKb7JtJ-1" vertex="1">
          <mxGeometry x="174.35897435897436" y="90" width="25.641025641025642" height="30" as="geometry" />
        </mxCell>
        <mxCell id="IruQyqnBqGkyNHg8HglS-1" value="" style="edgeStyle=orthogonalEdgeStyle;rounded=0;orthogonalLoop=1;jettySize=auto;html=1;" parent="1" source="JQsjH-k5fXQEeR4jvb6v-2" target="5eMM3qvNRYpljqZUuPz5-2" edge="1">
          <mxGeometry relative="1" as="geometry" />
        </mxCell>
        <mxCell id="IruQyqnBqGkyNHg8HglS-2" value="Стоимость&lt;div&gt;операции&lt;/div&gt;" style="edgeLabel;html=1;align=center;verticalAlign=middle;resizable=0;points=[];" parent="IruQyqnBqGkyNHg8HglS-1" vertex="1" connectable="0">
          <mxGeometry x="-0.2453" y="1" relative="1" as="geometry">
            <mxPoint x="29" y="-51" as="offset" />
          </mxGeometry>
        </mxCell>
        <mxCell id="lg_pE5fCnIQQ3k7WvC7S-1" value="" style="edgeStyle=orthogonalEdgeStyle;rounded=0;orthogonalLoop=1;jettySize=auto;html=1;" parent="1" source="5eMM3qvNRYpljqZUuPz5-2" target="5eMM3qvNRYpljqZUuPz5-5" edge="1">
          <mxGeometry relative="1" as="geometry" />
        </mxCell>
        <mxCell id="lg_pE5fCnIQQ3k7WvC7S-2" value="Разрешение&lt;div&gt;на продолжение&lt;/div&gt;&lt;div&gt;транзакции&lt;/div&gt;" style="edgeLabel;html=1;align=center;verticalAlign=middle;resizable=0;points=[];" parent="lg_pE5fCnIQQ3k7WvC7S-1" vertex="1" connectable="0">
          <mxGeometry x="-0.4004" y="2" relative="1" as="geometry">
            <mxPoint x="38" y="-43" as="offset" />
          </mxGeometry>
        </mxCell>
        <mxCell id="lg_pE5fCnIQQ3k7WvC7S-3" value="" style="edgeStyle=orthogonalEdgeStyle;rounded=0;orthogonalLoop=1;jettySize=auto;html=1;" parent="1" source="5eMM3qvNRYpljqZUuPz5-5" target="ZkqPVdoJrbLy8ZKb7JtJ-2" edge="1">
          <mxGeometry relative="1" as="geometry" />
        </mxCell>
        <mxCell id="lg_pE5fCnIQQ3k7WvC7S-4" value="Обновлённый&lt;div&gt;счёт&lt;/div&gt;" style="edgeLabel;html=1;align=center;verticalAlign=middle;resizable=0;points=[];" parent="lg_pE5fCnIQQ3k7WvC7S-3" vertex="1" connectable="0">
          <mxGeometry x="-0.1418" relative="1" as="geometry">
            <mxPoint x="30" y="-49" as="offset" />
          </mxGeometry>
        </mxCell>
        <mxCell id="Kwn_5hZXCX_PTdocr_kQ-1" value="" style="endArrow=classic;html=1;rounded=0;entryX=0;entryY=0.25;entryDx=0;entryDy=0;" parent="1" edge="1">
          <mxGeometry width="50" height="50" relative="1" as="geometry">
            <mxPoint x="1320" y="659.5799999999999" as="sourcePoint" />
            <mxPoint x="1440" y="659.5799999999999" as="targetPoint" />
          </mxGeometry>
        </mxCell>
        <mxCell id="Kwn_5hZXCX_PTdocr_kQ-2" value="Выполненная&lt;div&gt;транзакция&lt;/div&gt;" style="edgeLabel;html=1;align=center;verticalAlign=middle;resizable=0;points=[];" parent="Kwn_5hZXCX_PTdocr_kQ-1" vertex="1" connectable="0">
          <mxGeometry x="-0.1529" y="-1" relative="1" as="geometry">
            <mxPoint x="9" y="-31" as="offset" />
          </mxGeometry>
        </mxCell>
        <mxCell id="REWoxo_OYtlpnYfjyWC--1" value="" style="endArrow=classic;html=1;rounded=0;entryX=0;entryY=1;entryDx=0;entryDy=0;" parent="1" edge="1">
          <mxGeometry width="50" height="50" relative="1" as="geometry">
            <mxPoint x="1220.59" y="840.5" as="sourcePoint" />
            <mxPoint x="1220.59" y="720.5" as="targetPoint" />
          </mxGeometry>
        </mxCell>
        <mxCell id="REWoxo_OYtlpnYfjyWC--2" value="Сервер" style="edgeLabel;html=1;align=center;verticalAlign=middle;resizable=0;points=[];" parent="REWoxo_OYtlpnYfjyWC--1" vertex="1" connectable="0">
          <mxGeometry x="0.0846" relative="1" as="geometry">
            <mxPoint x="-30" y="45" as="offset" />
          </mxGeometry>
        </mxCell>
        <mxCell id="REWoxo_OYtlpnYfjyWC--3" value="" style="endArrow=classic;html=1;rounded=0;entryX=0;entryY=1;entryDx=0;entryDy=0;" parent="1" edge="1">
          <mxGeometry width="50" height="50" relative="1" as="geometry">
            <mxPoint x="1289.59" y="840.5" as="sourcePoint" />
            <mxPoint x="1289.59" y="720.5" as="targetPoint" />
          </mxGeometry>
        </mxCell>
        <mxCell id="REWoxo_OYtlpnYfjyWC--4" value="База&lt;br&gt;данных" style="edgeLabel;html=1;align=center;verticalAlign=middle;resizable=0;points=[];" parent="REWoxo_OYtlpnYfjyWC--3" vertex="1" connectable="0">
          <mxGeometry x="0.0846" relative="1" as="geometry">
            <mxPoint x="-30" y="45" as="offset" />
          </mxGeometry>
        </mxCell>
        <mxCell id="REWoxo_OYtlpnYfjyWC--5" value="" style="endArrow=classic;html=1;rounded=0;entryX=0.5;entryY=1;entryDx=0;entryDy=0;" parent="1" edge="1">
          <mxGeometry width="50" height="50" relative="1" as="geometry">
            <mxPoint x="1220" y="780.5" as="sourcePoint" />
            <mxPoint x="959" y="640.5" as="targetPoint" />
            <Array as="points">
              <mxPoint x="959" y="780.5" />
            </Array>
          </mxGeometry>
        </mxCell>
        <mxCell id="REWoxo_OYtlpnYfjyWC--6" value="" style="endArrow=classic;html=1;rounded=0;entryX=0.5;entryY=1;entryDx=0;entryDy=0;" parent="1" edge="1">
          <mxGeometry width="50" height="50" relative="1" as="geometry">
            <mxPoint x="1290" y="800.5" as="sourcePoint" />
            <mxPoint x="914" y="640.5" as="targetPoint" />
            <Array as="points">
              <mxPoint x="914" y="800.5" />
            </Array>
          </mxGeometry>
        </mxCell>
        <mxCell id="REWoxo_OYtlpnYfjyWC--7" value="" style="endArrow=classic;html=1;rounded=0;entryX=0.7;entryY=1;entryDx=0;entryDy=0;entryPerimeter=0;" parent="1" edge="1">
          <mxGeometry width="50" height="50" relative="1" as="geometry">
            <mxPoint x="961" y="780.5" as="sourcePoint" />
            <mxPoint x="700" y="560.5" as="targetPoint" />
            <Array as="points">
              <mxPoint x="700" y="780.5" />
            </Array>
          </mxGeometry>
        </mxCell>
        <mxCell id="REWoxo_OYtlpnYfjyWC--8" value="" style="endArrow=classic;html=1;rounded=0;" parent="1" edge="1">
          <mxGeometry width="50" height="50" relative="1" as="geometry">
            <mxPoint x="936" y="800.5" as="sourcePoint" />
            <mxPoint x="600" y="560.5" as="targetPoint" />
            <Array as="points">
              <mxPoint x="600" y="800.5" />
            </Array>
          </mxGeometry>
        </mxCell>
        <mxCell id="REWoxo_OYtlpnYfjyWC--9" value="" style="endArrow=classic;html=1;rounded=0;" parent="1" edge="1">
          <mxGeometry width="50" height="50" relative="1" as="geometry">
            <mxPoint x="701" y="780.5" as="sourcePoint" />
            <mxPoint x="440" y="480.5" as="targetPoint" />
            <Array as="points">
              <mxPoint x="440" y="780.5" />
            </Array>
          </mxGeometry>
        </mxCell>
        <mxCell id="REWoxo_OYtlpnYfjyWC--10" value="" style="endArrow=classic;html=1;rounded=0;entryX=0.198;entryY=0.99;entryDx=0;entryDy=0;entryPerimeter=0;" parent="1" edge="1">
          <mxGeometry width="50" height="50" relative="1" as="geometry">
            <mxPoint x="606" y="800.5" as="sourcePoint" />
            <mxPoint x="320" y="479.5" as="targetPoint" />
            <Array as="points">
              <mxPoint x="320" y="800.5" />
              <mxPoint x="320" y="680.5" />
            </Array>
          </mxGeometry>
        </mxCell>
        <mxCell id="d-8rGhcReDWOp3i179Cu-1" value="" style="endArrow=classic;html=1;rounded=0;entryX=0;entryY=0;entryDx=0;entryDy=0;" parent="1" edge="1">
          <mxGeometry width="50" height="50" relative="1" as="geometry">
            <mxPoint x="380" y="240" as="sourcePoint" />
            <mxPoint x="380" y="360" as="targetPoint" />
          </mxGeometry>
        </mxCell>
        <mxCell id="d-8rGhcReDWOp3i179Cu-2" value="Правила&lt;div&gt;работы&lt;/div&gt;&lt;div&gt;системы&lt;/div&gt;" style="edgeLabel;html=1;align=center;verticalAlign=middle;resizable=0;points=[];" parent="d-8rGhcReDWOp3i179Cu-1" vertex="1" connectable="0">
          <mxGeometry x="-0.2027" relative="1" as="geometry">
            <mxPoint x="48" y="-28" as="offset" />
          </mxGeometry>
        </mxCell>
        <mxCell id="d-8rGhcReDWOp3i179Cu-3" value="" style="endArrow=classic;html=1;rounded=0;entryX=0.2;entryY=0;entryDx=0;entryDy=0;entryPerimeter=0;" parent="1" edge="1">
          <mxGeometry width="50" height="50" relative="1" as="geometry">
            <mxPoint x="380" y="320" as="sourcePoint" />
            <mxPoint x="600.5" y="440" as="targetPoint" />
            <Array as="points">
              <mxPoint x="601" y="320" />
            </Array>
          </mxGeometry>
        </mxCell>
        <mxCell id="d-8rGhcReDWOp3i179Cu-4" value="" style="endArrow=classic;html=1;rounded=0;entryX=0.5;entryY=0;entryDx=0;entryDy=0;" parent="1" edge="1">
          <mxGeometry width="50" height="50" relative="1" as="geometry">
            <mxPoint x="600.5" y="400" as="sourcePoint" />
            <mxPoint x="940.5" y="520" as="targetPoint" />
            <Array as="points">
              <mxPoint x="940.5" y="400" />
            </Array>
          </mxGeometry>
        </mxCell>
        <mxCell id="d-8rGhcReDWOp3i179Cu-5" value="" style="endArrow=classic;html=1;rounded=0;entryX=0.75;entryY=0;entryDx=0;entryDy=0;" parent="1" edge="1">
          <mxGeometry width="50" height="50" relative="1" as="geometry">
            <mxPoint x="940.5" y="400" as="sourcePoint" />
            <mxPoint x="1270.5" y="600" as="targetPoint" />
            <Array as="points">
              <mxPoint x="1270.5" y="400" />
            </Array>
          </mxGeometry>
        </mxCell>
      </root>
    </mxGraphModel>
  </diagram>
  <diagram id="smn8F2cMlQnQevj3mo3d" name="A4">
    <mxGraphModel dx="1216" dy="1232" grid="1" gridSize="10" guides="1" tooltips="1" connect="1" arrows="1" fold="1" page="1" pageScale="1" pageWidth="850" pageHeight="1100" math="0" shadow="0">
      <root>
        <mxCell id="0" />
        <mxCell id="1" parent="0" />
        <mxCell id="_MRw1F_suh0Iig2OjzFq-1" value="" style="group" parent="1" vertex="1" connectable="0">
          <mxGeometry x="1040" y="440" width="200" height="120" as="geometry" />
        </mxCell>
        <mxCell id="_MRw1F_suh0Iig2OjzFq-2" value="&lt;div&gt;Подготовить данные о&lt;/div&gt;&lt;div&gt;транзакции&lt;/div&gt;" style="rounded=0;whiteSpace=wrap;html=1;movable=1;resizable=1;rotatable=1;deletable=1;editable=1;locked=0;connectable=1;" parent="_MRw1F_suh0Iig2OjzFq-1" vertex="1">
          <mxGeometry width="199.99999999999997" height="119.99999999999999" as="geometry" />
        </mxCell>
        <mxCell id="_MRw1F_suh0Iig2OjzFq-3" value="&lt;font style=&quot;font-size: 10px;&quot;&gt;1&lt;/font&gt;" style="text;html=1;align=center;verticalAlign=middle;whiteSpace=wrap;rounded=0;movable=1;resizable=1;rotatable=1;deletable=1;editable=1;locked=0;connectable=1;" parent="_MRw1F_suh0Iig2OjzFq-1" vertex="1">
          <mxGeometry x="174.35897435897436" y="90" width="25.641025641025642" height="30" as="geometry" />
        </mxCell>
        <mxCell id="vsIHJJQbz5OPlqG7UGXs-1" value="" style="endArrow=classic;html=1;rounded=0;entryX=0;entryY=0.25;entryDx=0;entryDy=0;" parent="1" edge="1">
          <mxGeometry width="50" height="50" relative="1" as="geometry">
            <mxPoint x="920" y="499.5" as="sourcePoint" />
            <mxPoint x="1040" y="499.5" as="targetPoint" />
          </mxGeometry>
        </mxCell>
        <mxCell id="vsIHJJQbz5OPlqG7UGXs-2" value="Выполненная&lt;div&gt;транзакция&lt;/div&gt;" style="edgeLabel;html=1;align=center;verticalAlign=middle;resizable=0;points=[];" parent="vsIHJJQbz5OPlqG7UGXs-1" vertex="1" connectable="0">
          <mxGeometry x="-0.1529" y="-1" relative="1" as="geometry">
            <mxPoint x="4" y="-21" as="offset" />
          </mxGeometry>
        </mxCell>
        <mxCell id="JtaxGgaGRCmp8x3XuSeK-2" value="" style="group" parent="1" vertex="1" connectable="0">
          <mxGeometry x="1320" y="520" width="200" height="120" as="geometry" />
        </mxCell>
        <mxCell id="JtaxGgaGRCmp8x3XuSeK-3" value="&lt;div&gt;Записать операции в лог&lt;/div&gt;" style="rounded=0;whiteSpace=wrap;html=1;movable=1;resizable=1;rotatable=1;deletable=1;editable=1;locked=0;connectable=1;" parent="JtaxGgaGRCmp8x3XuSeK-2" vertex="1">
          <mxGeometry width="199.99999999999997" height="119.99999999999999" as="geometry" />
        </mxCell>
        <mxCell id="JtaxGgaGRCmp8x3XuSeK-4" value="&lt;font style=&quot;font-size: 10px;&quot;&gt;2&lt;/font&gt;" style="text;html=1;align=center;verticalAlign=middle;whiteSpace=wrap;rounded=0;movable=1;resizable=1;rotatable=1;deletable=1;editable=1;locked=0;connectable=1;" parent="JtaxGgaGRCmp8x3XuSeK-2" vertex="1">
          <mxGeometry x="174.35897435897436" y="90" width="25.641025641025642" height="30" as="geometry" />
        </mxCell>
        <mxCell id="1-_ugXWDR80seCe635eQ-1" value="" style="group" parent="1" vertex="1" connectable="0">
          <mxGeometry x="1600" y="600" width="200" height="120" as="geometry" />
        </mxCell>
        <mxCell id="1-_ugXWDR80seCe635eQ-2" value="&lt;div&gt;Сформировать уведомление&lt;/div&gt;&lt;div&gt;для пользователя&lt;/div&gt;" style="rounded=0;whiteSpace=wrap;html=1;movable=1;resizable=1;rotatable=1;deletable=1;editable=1;locked=0;connectable=1;" parent="1-_ugXWDR80seCe635eQ-1" vertex="1">
          <mxGeometry width="199.99999999999997" height="119.99999999999999" as="geometry" />
        </mxCell>
        <mxCell id="1-_ugXWDR80seCe635eQ-3" value="&lt;font style=&quot;font-size: 10px;&quot;&gt;3&lt;/font&gt;" style="text;html=1;align=center;verticalAlign=middle;whiteSpace=wrap;rounded=0;movable=1;resizable=1;rotatable=1;deletable=1;editable=1;locked=0;connectable=1;" parent="1-_ugXWDR80seCe635eQ-1" vertex="1">
          <mxGeometry x="174.35897435897436" y="90" width="25.641025641025642" height="30" as="geometry" />
        </mxCell>
        <mxCell id="1-_ugXWDR80seCe635eQ-4" value="" style="group" parent="1" vertex="1" connectable="0">
          <mxGeometry x="1880" y="680" width="200" height="120" as="geometry" />
        </mxCell>
        <mxCell id="1-_ugXWDR80seCe635eQ-5" value="&lt;div&gt;Подготовить данные&lt;/div&gt;&lt;div&gt;для аналитики&lt;/div&gt;" style="rounded=0;whiteSpace=wrap;html=1;movable=1;resizable=1;rotatable=1;deletable=1;editable=1;locked=0;connectable=1;" parent="1-_ugXWDR80seCe635eQ-4" vertex="1">
          <mxGeometry width="199.99999999999997" height="119.99999999999999" as="geometry" />
        </mxCell>
        <mxCell id="1-_ugXWDR80seCe635eQ-6" value="&lt;font style=&quot;font-size: 10px;&quot;&gt;4&lt;/font&gt;" style="text;html=1;align=center;verticalAlign=middle;whiteSpace=wrap;rounded=0;movable=1;resizable=1;rotatable=1;deletable=1;editable=1;locked=0;connectable=1;" parent="1-_ugXWDR80seCe635eQ-4" vertex="1">
          <mxGeometry x="174.35897435897436" y="90" width="25.641025641025642" height="30" as="geometry" />
        </mxCell>
        <mxCell id="1-_ugXWDR80seCe635eQ-7" value="" style="edgeStyle=orthogonalEdgeStyle;rounded=0;orthogonalLoop=1;jettySize=auto;html=1;" parent="1" source="_MRw1F_suh0Iig2OjzFq-2" target="JtaxGgaGRCmp8x3XuSeK-3" edge="1">
          <mxGeometry relative="1" as="geometry" />
        </mxCell>
        <mxCell id="1-_ugXWDR80seCe635eQ-8" value="Данные&lt;div&gt;о транзакции&lt;/div&gt;" style="edgeLabel;html=1;align=center;verticalAlign=middle;resizable=0;points=[];" parent="1-_ugXWDR80seCe635eQ-7" vertex="1" connectable="0">
          <mxGeometry x="-0.2375" y="3" relative="1" as="geometry">
            <mxPoint x="37" y="-41" as="offset" />
          </mxGeometry>
        </mxCell>
        <mxCell id="1-_ugXWDR80seCe635eQ-9" value="" style="edgeStyle=orthogonalEdgeStyle;rounded=0;orthogonalLoop=1;jettySize=auto;html=1;" parent="1" source="JtaxGgaGRCmp8x3XuSeK-3" target="1-_ugXWDR80seCe635eQ-2" edge="1">
          <mxGeometry relative="1" as="geometry" />
        </mxCell>
        <mxCell id="1-_ugXWDR80seCe635eQ-10" value="Логи&lt;div&gt;операции&lt;/div&gt;" style="edgeLabel;html=1;align=center;verticalAlign=middle;resizable=0;points=[];" parent="1-_ugXWDR80seCe635eQ-9" vertex="1" connectable="0">
          <mxGeometry x="-0.25" y="1" relative="1" as="geometry">
            <mxPoint x="39" y="-30" as="offset" />
          </mxGeometry>
        </mxCell>
        <mxCell id="4nKGo7-hGgud4y3enXSl-1" value="" style="edgeStyle=orthogonalEdgeStyle;rounded=0;orthogonalLoop=1;jettySize=auto;html=1;" parent="1" source="1-_ugXWDR80seCe635eQ-2" target="1-_ugXWDR80seCe635eQ-5" edge="1">
          <mxGeometry relative="1" as="geometry" />
        </mxCell>
        <mxCell id="4nKGo7-hGgud4y3enXSl-2" value="Уведомление&lt;div&gt;для пользователя&lt;/div&gt;" style="edgeLabel;html=1;align=center;verticalAlign=middle;resizable=0;points=[];" parent="4nKGo7-hGgud4y3enXSl-1" vertex="1" connectable="0">
          <mxGeometry x="-0.1875" relative="1" as="geometry">
            <mxPoint x="40" y="-45" as="offset" />
          </mxGeometry>
        </mxCell>
        <mxCell id="A5YGT-JtUDh7JHLDnCpp-1" value="" style="endArrow=classic;html=1;rounded=0;entryX=0;entryY=0.25;entryDx=0;entryDy=0;" parent="1" edge="1">
          <mxGeometry width="50" height="50" relative="1" as="geometry">
            <mxPoint x="2080" y="739.5" as="sourcePoint" />
            <mxPoint x="2200" y="739.5" as="targetPoint" />
          </mxGeometry>
        </mxCell>
        <mxCell id="A5YGT-JtUDh7JHLDnCpp-2" value="Данные для&lt;div&gt;аналитики&lt;/div&gt;" style="edgeLabel;html=1;align=center;verticalAlign=middle;resizable=0;points=[];" parent="A5YGT-JtUDh7JHLDnCpp-1" vertex="1" connectable="0">
          <mxGeometry x="-0.1529" y="-1" relative="1" as="geometry">
            <mxPoint x="4" y="-21" as="offset" />
          </mxGeometry>
        </mxCell>
        <mxCell id="A5YGT-JtUDh7JHLDnCpp-3" value="" style="endArrow=classic;html=1;rounded=0;" parent="1" edge="1">
          <mxGeometry width="50" height="50" relative="1" as="geometry">
            <mxPoint x="1520" y="540" as="sourcePoint" />
            <mxPoint x="2200" y="540" as="targetPoint" />
          </mxGeometry>
        </mxCell>
        <mxCell id="A5YGT-JtUDh7JHLDnCpp-4" value="Проведённое логгирование" style="edgeLabel;html=1;align=center;verticalAlign=middle;resizable=0;points=[];" parent="A5YGT-JtUDh7JHLDnCpp-3" vertex="1" connectable="0">
          <mxGeometry x="-0.1529" y="-1" relative="1" as="geometry">
            <mxPoint x="317" y="-31" as="offset" />
          </mxGeometry>
        </mxCell>
        <mxCell id="Ce967zbUOeqvNcgUDKpz-1" value="" style="endArrow=classic;html=1;rounded=0;entryX=0;entryY=1;entryDx=0;entryDy=0;" parent="1" edge="1">
          <mxGeometry width="50" height="50" relative="1" as="geometry">
            <mxPoint x="1919.9999999999998" y="920" as="sourcePoint" />
            <mxPoint x="1919.9999999999998" y="800" as="targetPoint" />
          </mxGeometry>
        </mxCell>
        <mxCell id="Ce967zbUOeqvNcgUDKpz-2" value="Клиентское&lt;div&gt;приложение&lt;/div&gt;" style="edgeLabel;html=1;align=center;verticalAlign=middle;resizable=0;points=[];" parent="Ce967zbUOeqvNcgUDKpz-1" vertex="1" connectable="0">
          <mxGeometry x="0.0846" relative="1" as="geometry">
            <mxPoint x="-40" y="45" as="offset" />
          </mxGeometry>
        </mxCell>
        <mxCell id="Ce967zbUOeqvNcgUDKpz-3" value="" style="endArrow=classic;html=1;rounded=0;entryX=0;entryY=1;entryDx=0;entryDy=0;" parent="1" edge="1">
          <mxGeometry width="50" height="50" relative="1" as="geometry">
            <mxPoint x="1980.59" y="920" as="sourcePoint" />
            <mxPoint x="1980.59" y="800" as="targetPoint" />
          </mxGeometry>
        </mxCell>
        <mxCell id="Ce967zbUOeqvNcgUDKpz-4" value="Сервер" style="edgeLabel;html=1;align=center;verticalAlign=middle;resizable=0;points=[];" parent="Ce967zbUOeqvNcgUDKpz-3" vertex="1" connectable="0">
          <mxGeometry x="0.0846" relative="1" as="geometry">
            <mxPoint x="-30" y="45" as="offset" />
          </mxGeometry>
        </mxCell>
        <mxCell id="Ce967zbUOeqvNcgUDKpz-5" value="" style="endArrow=classic;html=1;rounded=0;entryX=0;entryY=1;entryDx=0;entryDy=0;" parent="1" edge="1">
          <mxGeometry width="50" height="50" relative="1" as="geometry">
            <mxPoint x="2049.59" y="920" as="sourcePoint" />
            <mxPoint x="2049.59" y="800" as="targetPoint" />
          </mxGeometry>
        </mxCell>
        <mxCell id="Ce967zbUOeqvNcgUDKpz-6" value="База&lt;br&gt;данных" style="edgeLabel;html=1;align=center;verticalAlign=middle;resizable=0;points=[];" parent="Ce967zbUOeqvNcgUDKpz-5" vertex="1" connectable="0">
          <mxGeometry x="0.0846" relative="1" as="geometry">
            <mxPoint x="-30" y="45" as="offset" />
          </mxGeometry>
        </mxCell>
        <mxCell id="Ce967zbUOeqvNcgUDKpz-7" value="" style="endArrow=classic;html=1;rounded=0;entryX=0;entryY=1;entryDx=0;entryDy=0;" parent="1" edge="1">
          <mxGeometry width="50" height="50" relative="1" as="geometry">
            <mxPoint x="1419.5" y="760" as="sourcePoint" />
            <mxPoint x="1419.5" y="640" as="targetPoint" />
          </mxGeometry>
        </mxCell>
        <mxCell id="Ce967zbUOeqvNcgUDKpz-8" value="Логгер" style="edgeLabel;html=1;align=center;verticalAlign=middle;resizable=0;points=[];" parent="Ce967zbUOeqvNcgUDKpz-7" vertex="1" connectable="0">
          <mxGeometry x="0.0846" relative="1" as="geometry">
            <mxPoint x="-26" y="45" as="offset" />
          </mxGeometry>
        </mxCell>
        <mxCell id="i7SCN4S_fEM2bw0bikXN-2" value="" style="endArrow=classic;html=1;rounded=0;entryX=0.8;entryY=1;entryDx=0;entryDy=0;entryPerimeter=0;" parent="1" target="1-_ugXWDR80seCe635eQ-2" edge="1">
          <mxGeometry width="50" height="50" relative="1" as="geometry">
            <mxPoint x="1980" y="850" as="sourcePoint" />
            <mxPoint x="1790" y="790" as="targetPoint" />
            <Array as="points">
              <mxPoint x="1760" y="850" />
            </Array>
          </mxGeometry>
        </mxCell>
        <mxCell id="i7SCN4S_fEM2bw0bikXN-3" value="" style="endArrow=classic;html=1;rounded=0;entryX=0.8;entryY=1;entryDx=0;entryDy=0;entryPerimeter=0;" parent="1" edge="1">
          <mxGeometry width="50" height="50" relative="1" as="geometry">
            <mxPoint x="1920" y="840" as="sourcePoint" />
            <mxPoint x="1700" y="720" as="targetPoint" />
            <Array as="points">
              <mxPoint x="1700" y="840" />
            </Array>
          </mxGeometry>
        </mxCell>
        <mxCell id="i7SCN4S_fEM2bw0bikXN-4" value="" style="endArrow=classic;html=1;rounded=0;entryX=0.8;entryY=1;entryDx=0;entryDy=0;entryPerimeter=0;" parent="1" edge="1">
          <mxGeometry width="50" height="50" relative="1" as="geometry">
            <mxPoint x="2050" y="880" as="sourcePoint" />
            <mxPoint x="1640" y="720" as="targetPoint" />
            <Array as="points">
              <mxPoint x="1640" y="880" />
            </Array>
          </mxGeometry>
        </mxCell>
        <mxCell id="i7SCN4S_fEM2bw0bikXN-5" value="" style="endArrow=classic;html=1;rounded=0;entryX=0.8;entryY=1;entryDx=0;entryDy=0;entryPerimeter=0;" parent="1" target="JtaxGgaGRCmp8x3XuSeK-3" edge="1">
          <mxGeometry width="50" height="50" relative="1" as="geometry">
            <mxPoint x="1700" y="840" as="sourcePoint" />
            <mxPoint x="1480" y="720" as="targetPoint" />
            <Array as="points">
              <mxPoint x="1480" y="840" />
            </Array>
          </mxGeometry>
        </mxCell>
        <mxCell id="i7SCN4S_fEM2bw0bikXN-6" value="" style="endArrow=classic;html=1;rounded=0;entryX=0.173;entryY=1.005;entryDx=0;entryDy=0;entryPerimeter=0;" parent="1" target="JtaxGgaGRCmp8x3XuSeK-3" edge="1">
          <mxGeometry width="50" height="50" relative="1" as="geometry">
            <mxPoint x="1760" y="850" as="sourcePoint" />
            <mxPoint x="1540" y="720" as="targetPoint" />
            <Array as="points">
              <mxPoint x="1355" y="850" />
            </Array>
          </mxGeometry>
        </mxCell>
        <mxCell id="i7SCN4S_fEM2bw0bikXN-7" value="" style="endArrow=classic;html=1;rounded=0;entryX=0.75;entryY=1;entryDx=0;entryDy=0;" parent="1" target="_MRw1F_suh0Iig2OjzFq-2" edge="1">
          <mxGeometry width="50" height="50" relative="1" as="geometry">
            <mxPoint x="1640" y="880" as="sourcePoint" />
            <mxPoint x="1230" y="720" as="targetPoint" />
            <Array as="points">
              <mxPoint x="1190" y="880" />
            </Array>
          </mxGeometry>
        </mxCell>
        <mxCell id="i7SCN4S_fEM2bw0bikXN-8" value="" style="endArrow=classic;html=1;rounded=0;entryX=0.25;entryY=1;entryDx=0;entryDy=0;" parent="1" target="_MRw1F_suh0Iig2OjzFq-2" edge="1">
          <mxGeometry width="50" height="50" relative="1" as="geometry">
            <mxPoint x="1360" y="850" as="sourcePoint" />
            <mxPoint x="1140" y="720" as="targetPoint" />
            <Array as="points">
              <mxPoint x="1090" y="850" />
            </Array>
          </mxGeometry>
        </mxCell>
        <mxCell id="zJWMtKcJOQIiJGlNS30K-1" value="" style="endArrow=classic;html=1;rounded=0;entryX=0;entryY=0;entryDx=0;entryDy=0;" parent="1" edge="1">
          <mxGeometry width="50" height="50" relative="1" as="geometry">
            <mxPoint x="1190" y="320" as="sourcePoint" />
            <mxPoint x="1190" y="440" as="targetPoint" />
          </mxGeometry>
        </mxCell>
        <mxCell id="zJWMtKcJOQIiJGlNS30K-2" value="Правила&lt;div&gt;работы&lt;/div&gt;&lt;div&gt;системы&lt;/div&gt;" style="edgeLabel;html=1;align=center;verticalAlign=middle;resizable=0;points=[];" parent="zJWMtKcJOQIiJGlNS30K-1" vertex="1" connectable="0">
          <mxGeometry x="-0.2027" relative="1" as="geometry">
            <mxPoint x="48" y="-28" as="offset" />
          </mxGeometry>
        </mxCell>
        <mxCell id="zJWMtKcJOQIiJGlNS30K-3" value="" style="endArrow=classic;html=1;rounded=0;entryX=0;entryY=0;entryDx=0;entryDy=0;" parent="1" edge="1">
          <mxGeometry width="50" height="50" relative="1" as="geometry">
            <mxPoint x="1090" y="320" as="sourcePoint" />
            <mxPoint x="1090" y="440" as="targetPoint" />
          </mxGeometry>
        </mxCell>
        <mxCell id="zJWMtKcJOQIiJGlNS30K-4" value="Регуляторные&lt;div&gt;требования&lt;/div&gt;" style="edgeLabel;html=1;align=center;verticalAlign=middle;resizable=0;points=[];" parent="zJWMtKcJOQIiJGlNS30K-3" vertex="1" connectable="0">
          <mxGeometry x="-0.2027" relative="1" as="geometry">
            <mxPoint x="50" y="-28" as="offset" />
          </mxGeometry>
        </mxCell>
        <mxCell id="zJWMtKcJOQIiJGlNS30K-5" value="" style="endArrow=classic;html=1;rounded=0;entryX=0.2;entryY=0;entryDx=0;entryDy=0;entryPerimeter=0;" parent="1" edge="1">
          <mxGeometry width="50" height="50" relative="1" as="geometry">
            <mxPoint x="1190.5" y="420" as="sourcePoint" />
            <mxPoint x="1410.5" y="520" as="targetPoint" />
            <Array as="points">
              <mxPoint x="1410.5" y="420" />
            </Array>
          </mxGeometry>
        </mxCell>
        <mxCell id="zJWMtKcJOQIiJGlNS30K-6" value="" style="endArrow=classic;html=1;rounded=0;entryX=0.75;entryY=0;entryDx=0;entryDy=0;" parent="1" target="1-_ugXWDR80seCe635eQ-5" edge="1">
          <mxGeometry width="50" height="50" relative="1" as="geometry">
            <mxPoint x="1090" y="370" as="sourcePoint" />
            <mxPoint x="1620" y="600" as="targetPoint" />
            <Array as="points">
              <mxPoint x="2030" y="370" />
            </Array>
          </mxGeometry>
        </mxCell>
        <mxCell id="zJWMtKcJOQIiJGlNS30K-7" value="" style="endArrow=classic;html=1;rounded=0;entryX=0.5;entryY=0;entryDx=0;entryDy=0;" parent="1" target="1-_ugXWDR80seCe635eQ-2" edge="1">
          <mxGeometry width="50" height="50" relative="1" as="geometry">
            <mxPoint x="1410" y="420" as="sourcePoint" />
            <mxPoint x="1630" y="520" as="targetPoint" />
            <Array as="points">
              <mxPoint x="1700" y="420" />
            </Array>
          </mxGeometry>
        </mxCell>
        <mxCell id="zJWMtKcJOQIiJGlNS30K-8" value="" style="endArrow=classic;html=1;rounded=0;entryX=0.5;entryY=0;entryDx=0;entryDy=0;" parent="1" target="1-_ugXWDR80seCe635eQ-5" edge="1">
          <mxGeometry width="50" height="50" relative="1" as="geometry">
            <mxPoint x="1700" y="420" as="sourcePoint" />
            <mxPoint x="1990" y="600" as="targetPoint" />
            <Array as="points">
              <mxPoint x="1980" y="420" />
            </Array>
          </mxGeometry>
        </mxCell>
      </root>
    </mxGraphModel>
  </diagram>
  <diagram id="1mRfwBPT8U3z4KURrfZF" name="A2.2">
    <mxGraphModel dx="2066" dy="1232" grid="1" gridSize="10" guides="1" tooltips="1" connect="1" arrows="1" fold="1" page="1" pageScale="1" pageWidth="850" pageHeight="1100" math="0" shadow="0">
      <root>
        <mxCell id="0" />
        <mxCell id="1" parent="0" />
        <mxCell id="5hOX7IJOSLs_VAfinWYP-1" value="" style="group" parent="1" vertex="1" connectable="0">
          <mxGeometry x="160" y="400" width="200" height="120" as="geometry" />
        </mxCell>
        <mxCell id="5hOX7IJOSLs_VAfinWYP-2" value="Проверить существование компании" style="rounded=0;whiteSpace=wrap;html=1;movable=1;resizable=1;rotatable=1;deletable=1;editable=1;locked=0;connectable=1;" parent="5hOX7IJOSLs_VAfinWYP-1" vertex="1">
          <mxGeometry width="199.99999999999997" height="119.99999999999999" as="geometry" />
        </mxCell>
        <mxCell id="5hOX7IJOSLs_VAfinWYP-3" value="&lt;font style=&quot;font-size: 10px;&quot;&gt;1&lt;/font&gt;" style="text;html=1;align=center;verticalAlign=middle;whiteSpace=wrap;rounded=0;movable=1;resizable=1;rotatable=1;deletable=1;editable=1;locked=0;connectable=1;" parent="5hOX7IJOSLs_VAfinWYP-1" vertex="1">
          <mxGeometry x="174.35897435897436" y="90" width="25.641025641025642" height="30" as="geometry" />
        </mxCell>
        <mxCell id="qtg1fcG4lJOulJlhz4ir-1" value="" style="group" parent="1" vertex="1" connectable="0">
          <mxGeometry x="720" y="560" width="200" height="120" as="geometry" />
        </mxCell>
        <mxCell id="qtg1fcG4lJOulJlhz4ir-2" value="Проверить валидность запрашиваемого количества&lt;div&gt;акций&lt;/div&gt;" style="rounded=0;whiteSpace=wrap;html=1;movable=1;resizable=1;rotatable=1;deletable=1;editable=1;locked=0;connectable=1;" parent="qtg1fcG4lJOulJlhz4ir-1" vertex="1">
          <mxGeometry width="199.99999999999997" height="119.99999999999999" as="geometry" />
        </mxCell>
        <mxCell id="qtg1fcG4lJOulJlhz4ir-3" value="&lt;font style=&quot;font-size: 10px;&quot;&gt;3&lt;/font&gt;" style="text;html=1;align=center;verticalAlign=middle;whiteSpace=wrap;rounded=0;movable=1;resizable=1;rotatable=1;deletable=1;editable=1;locked=0;connectable=1;" parent="qtg1fcG4lJOulJlhz4ir-1" vertex="1">
          <mxGeometry x="174.35897435897436" y="90" width="25.641025641025642" height="30" as="geometry" />
        </mxCell>
        <mxCell id="qtg1fcG4lJOulJlhz4ir-4" value="" style="group" parent="1" vertex="1" connectable="0">
          <mxGeometry x="440" y="480" width="200" height="120" as="geometry" />
        </mxCell>
        <mxCell id="qtg1fcG4lJOulJlhz4ir-5" value="Проверить существование&amp;nbsp;акции" style="rounded=0;whiteSpace=wrap;html=1;movable=1;resizable=1;rotatable=1;deletable=1;editable=1;locked=0;connectable=1;" parent="qtg1fcG4lJOulJlhz4ir-4" vertex="1">
          <mxGeometry width="199.99999999999997" height="119.99999999999999" as="geometry" />
        </mxCell>
        <mxCell id="qtg1fcG4lJOulJlhz4ir-6" value="&lt;font style=&quot;font-size: 10px;&quot;&gt;2&lt;/font&gt;" style="text;html=1;align=center;verticalAlign=middle;whiteSpace=wrap;rounded=0;movable=1;resizable=1;rotatable=1;deletable=1;editable=1;locked=0;connectable=1;" parent="qtg1fcG4lJOulJlhz4ir-4" vertex="1">
          <mxGeometry x="174.35897435897436" y="90" width="25.641025641025642" height="30" as="geometry" />
        </mxCell>
        <mxCell id="qtg1fcG4lJOulJlhz4ir-7" value="" style="group" parent="1" vertex="1" connectable="0">
          <mxGeometry x="1000" y="640" width="200" height="120" as="geometry" />
        </mxCell>
        <mxCell id="qtg1fcG4lJOulJlhz4ir-8" value="Проверить наличие достаточного количества денег на балансе" style="rounded=0;whiteSpace=wrap;html=1;movable=1;resizable=1;rotatable=1;deletable=1;editable=1;locked=0;connectable=1;" parent="qtg1fcG4lJOulJlhz4ir-7" vertex="1">
          <mxGeometry width="199.99999999999997" height="119.99999999999999" as="geometry" />
        </mxCell>
        <mxCell id="qtg1fcG4lJOulJlhz4ir-9" value="&lt;font style=&quot;font-size: 10px;&quot;&gt;4&lt;/font&gt;" style="text;html=1;align=center;verticalAlign=middle;whiteSpace=wrap;rounded=0;movable=1;resizable=1;rotatable=1;deletable=1;editable=1;locked=0;connectable=1;" parent="qtg1fcG4lJOulJlhz4ir-7" vertex="1">
          <mxGeometry x="174.35897435897436" y="90" width="25.641025641025642" height="30" as="geometry" />
        </mxCell>
        <mxCell id="54ecKyMv36zlJlc_rrfa-1" value="" style="endArrow=classic;html=1;rounded=0;flowAnimation=0;shadow=0;" parent="1" edge="1">
          <mxGeometry width="50" height="50" relative="1" as="geometry">
            <mxPoint x="1200" y="699.5799999999999" as="sourcePoint" />
            <mxPoint x="1320" y="699.5799999999999" as="targetPoint" />
          </mxGeometry>
        </mxCell>
        <mxCell id="54ecKyMv36zlJlc_rrfa-2" value="Подтверждение&lt;div&gt;запроса на&lt;/div&gt;&lt;div&gt;транзакцию&lt;/div&gt;" style="edgeLabel;html=1;align=center;verticalAlign=middle;resizable=0;points=[];" parent="54ecKyMv36zlJlc_rrfa-1" vertex="1" connectable="0">
          <mxGeometry x="-0.1529" y="-1" relative="1" as="geometry">
            <mxPoint x="4" y="-30" as="offset" />
          </mxGeometry>
        </mxCell>
        <mxCell id="b21ol1zuw0ZQn8g2iSpi-1" value="" style="endArrow=classic;html=1;rounded=0;flowAnimation=0;shadow=0;" parent="1" edge="1">
          <mxGeometry width="50" height="50" relative="1" as="geometry">
            <mxPoint x="40" y="409.99999999999994" as="sourcePoint" />
            <mxPoint x="160" y="409.99999999999994" as="targetPoint" />
          </mxGeometry>
        </mxCell>
        <mxCell id="b21ol1zuw0ZQn8g2iSpi-2" value="Наличие&lt;div&gt;подтверждения&lt;div&gt;доступа&lt;/div&gt;&lt;/div&gt;" style="edgeLabel;html=1;align=center;verticalAlign=middle;resizable=0;points=[];" parent="b21ol1zuw0ZQn8g2iSpi-1" vertex="1" connectable="0">
          <mxGeometry x="-0.1529" y="-1" relative="1" as="geometry">
            <mxPoint x="4" y="-30" as="offset" />
          </mxGeometry>
        </mxCell>
        <mxCell id="b21ol1zuw0ZQn8g2iSpi-3" value="" style="endArrow=classic;html=1;rounded=0;flowAnimation=0;shadow=0;" parent="1" edge="1">
          <mxGeometry width="50" height="50" relative="1" as="geometry">
            <mxPoint x="40" y="459.5799999999999" as="sourcePoint" />
            <mxPoint x="160" y="459.5799999999999" as="targetPoint" />
          </mxGeometry>
        </mxCell>
        <mxCell id="b21ol1zuw0ZQn8g2iSpi-4" value="Запрос на&lt;div&gt;транзакцию&lt;/div&gt;" style="edgeLabel;html=1;align=center;verticalAlign=middle;resizable=0;points=[];" parent="b21ol1zuw0ZQn8g2iSpi-3" vertex="1" connectable="0">
          <mxGeometry x="-0.1529" y="-1" relative="1" as="geometry">
            <mxPoint x="4" y="-30" as="offset" />
          </mxGeometry>
        </mxCell>
        <mxCell id="b21ol1zuw0ZQn8g2iSpi-5" value="" style="endArrow=classic;html=1;rounded=0;flowAnimation=0;shadow=0;entryX=0;entryY=0.75;entryDx=0;entryDy=0;" parent="1" target="qtg1fcG4lJOulJlhz4ir-8" edge="1">
          <mxGeometry width="50" height="50" relative="1" as="geometry">
            <mxPoint x="50" y="730" as="sourcePoint" />
            <mxPoint x="160" y="659.9999999999999" as="targetPoint" />
          </mxGeometry>
        </mxCell>
        <mxCell id="b21ol1zuw0ZQn8g2iSpi-6" value="Рыночные&lt;div&gt;данные&lt;/div&gt;" style="edgeLabel;html=1;align=center;verticalAlign=middle;resizable=0;points=[];" parent="b21ol1zuw0ZQn8g2iSpi-5" vertex="1" connectable="0">
          <mxGeometry x="-0.1529" y="-1" relative="1" as="geometry">
            <mxPoint x="-352" y="-31" as="offset" />
          </mxGeometry>
        </mxCell>
        <mxCell id="2oAzUDgM7-k1X9Qw4ISe-1" value="" style="edgeStyle=orthogonalEdgeStyle;rounded=0;orthogonalLoop=1;jettySize=auto;html=1;" parent="1" source="qtg1fcG4lJOulJlhz4ir-5" target="qtg1fcG4lJOulJlhz4ir-2" edge="1">
          <mxGeometry relative="1" as="geometry" />
        </mxCell>
        <mxCell id="5Ljo29Cnz1EQJED73YZA-2" value="Подтверждение&lt;div&gt;существования&lt;/div&gt;&lt;div&gt;акции&lt;/div&gt;" style="edgeLabel;html=1;align=center;verticalAlign=middle;resizable=0;points=[];" parent="2oAzUDgM7-k1X9Qw4ISe-1" vertex="1" connectable="0">
          <mxGeometry x="0.0196" y="2" relative="1" as="geometry">
            <mxPoint x="38" y="-61" as="offset" />
          </mxGeometry>
        </mxCell>
        <mxCell id="2oAzUDgM7-k1X9Qw4ISe-3" value="" style="edgeStyle=orthogonalEdgeStyle;rounded=0;orthogonalLoop=1;jettySize=auto;html=1;" parent="1" source="5hOX7IJOSLs_VAfinWYP-2" target="qtg1fcG4lJOulJlhz4ir-5" edge="1">
          <mxGeometry relative="1" as="geometry" />
        </mxCell>
        <mxCell id="5Ljo29Cnz1EQJED73YZA-1" value="Подтверждение&lt;div&gt;существования&lt;/div&gt;&lt;div&gt;компании&lt;/div&gt;" style="edgeLabel;html=1;align=center;verticalAlign=middle;resizable=0;points=[];" parent="2oAzUDgM7-k1X9Qw4ISe-3" vertex="1" connectable="0">
          <mxGeometry x="-0.1375" y="2" relative="1" as="geometry">
            <mxPoint x="38" y="-59" as="offset" />
          </mxGeometry>
        </mxCell>
        <mxCell id="2oAzUDgM7-k1X9Qw4ISe-4" value="" style="edgeStyle=orthogonalEdgeStyle;rounded=0;orthogonalLoop=1;jettySize=auto;html=1;" parent="1" source="qtg1fcG4lJOulJlhz4ir-2" target="qtg1fcG4lJOulJlhz4ir-8" edge="1">
          <mxGeometry relative="1" as="geometry" />
        </mxCell>
        <mxCell id="5Ljo29Cnz1EQJED73YZA-3" value="Подтверждение&lt;div&gt;валидности&lt;/div&gt;&lt;div&gt;запрашиваемого&lt;/div&gt;&lt;div&gt;количества&lt;/div&gt;&lt;div&gt;акций&lt;/div&gt;" style="edgeLabel;html=1;align=center;verticalAlign=middle;resizable=0;points=[];" parent="2oAzUDgM7-k1X9Qw4ISe-4" vertex="1" connectable="0">
          <mxGeometry x="-0.0399" y="1" relative="1" as="geometry">
            <mxPoint x="39" y="-77" as="offset" />
          </mxGeometry>
        </mxCell>
        <mxCell id="rBbrOvxkI2eQkgzvAiDd-1" value="" style="endArrow=classic;html=1;rounded=0;entryX=0.25;entryY=1;entryDx=0;entryDy=0;" parent="1" edge="1">
          <mxGeometry width="50" height="50" relative="1" as="geometry">
            <mxPoint x="1050" y="880" as="sourcePoint" />
            <mxPoint x="1050" y="760" as="targetPoint" />
          </mxGeometry>
        </mxCell>
        <mxCell id="rBbrOvxkI2eQkgzvAiDd-2" value="Сервер" style="edgeLabel;html=1;align=center;verticalAlign=middle;resizable=0;points=[];" parent="rBbrOvxkI2eQkgzvAiDd-1" vertex="1" connectable="0">
          <mxGeometry x="0.0846" relative="1" as="geometry">
            <mxPoint x="-30" y="45" as="offset" />
          </mxGeometry>
        </mxCell>
        <mxCell id="rBbrOvxkI2eQkgzvAiDd-3" value="" style="endArrow=classic;html=1;rounded=0;entryX=0.75;entryY=1;entryDx=0;entryDy=0;" parent="1" edge="1">
          <mxGeometry width="50" height="50" relative="1" as="geometry">
            <mxPoint x="1150" y="880" as="sourcePoint" />
            <mxPoint x="1150" y="760" as="targetPoint" />
          </mxGeometry>
        </mxCell>
        <mxCell id="rBbrOvxkI2eQkgzvAiDd-4" value="База&lt;br&gt;данных" style="edgeLabel;html=1;align=center;verticalAlign=middle;resizable=0;points=[];" parent="rBbrOvxkI2eQkgzvAiDd-3" vertex="1" connectable="0">
          <mxGeometry x="0.0846" relative="1" as="geometry">
            <mxPoint x="-30" y="45" as="offset" />
          </mxGeometry>
        </mxCell>
        <mxCell id="rBbrOvxkI2eQkgzvAiDd-5" value="" style="endArrow=classic;html=1;rounded=0;entryX=0.75;entryY=1;entryDx=0;entryDy=0;" parent="1" edge="1">
          <mxGeometry width="50" height="50" relative="1" as="geometry">
            <mxPoint x="1050" y="820" as="sourcePoint" />
            <mxPoint x="870" y="680" as="targetPoint" />
            <Array as="points">
              <mxPoint x="870" y="820" />
            </Array>
          </mxGeometry>
        </mxCell>
        <mxCell id="rBbrOvxkI2eQkgzvAiDd-6" value="" style="endArrow=classic;html=1;rounded=0;entryX=0.25;entryY=1;entryDx=0;entryDy=0;" parent="1" edge="1">
          <mxGeometry width="50" height="50" relative="1" as="geometry">
            <mxPoint x="1150" y="840" as="sourcePoint" />
            <mxPoint x="770" y="680" as="targetPoint" />
            <Array as="points">
              <mxPoint x="770" y="840" />
            </Array>
          </mxGeometry>
        </mxCell>
        <mxCell id="rBbrOvxkI2eQkgzvAiDd-9" value="" style="endArrow=classic;html=1;rounded=0;entryX=0.75;entryY=1;entryDx=0;entryDy=0;" parent="1" target="qtg1fcG4lJOulJlhz4ir-5" edge="1">
          <mxGeometry width="50" height="50" relative="1" as="geometry">
            <mxPoint x="770" y="840" as="sourcePoint" />
            <mxPoint x="590" y="700" as="targetPoint" />
            <Array as="points">
              <mxPoint x="590" y="840" />
            </Array>
          </mxGeometry>
        </mxCell>
        <mxCell id="rBbrOvxkI2eQkgzvAiDd-11" value="" style="endArrow=classic;html=1;rounded=0;entryX=0.25;entryY=1;entryDx=0;entryDy=0;" parent="1" target="qtg1fcG4lJOulJlhz4ir-5" edge="1">
          <mxGeometry width="50" height="50" relative="1" as="geometry">
            <mxPoint x="870" y="820" as="sourcePoint" />
            <mxPoint x="490" y="660" as="targetPoint" />
            <Array as="points">
              <mxPoint x="490" y="820" />
            </Array>
          </mxGeometry>
        </mxCell>
        <mxCell id="rBbrOvxkI2eQkgzvAiDd-12" value="" style="endArrow=classic;html=1;rounded=0;entryX=0.75;entryY=1;entryDx=0;entryDy=0;" parent="1" target="5hOX7IJOSLs_VAfinWYP-2" edge="1">
          <mxGeometry width="50" height="50" relative="1" as="geometry">
            <mxPoint x="490" y="820" as="sourcePoint" />
            <mxPoint x="310" y="680" as="targetPoint" />
            <Array as="points">
              <mxPoint x="310" y="820" />
            </Array>
          </mxGeometry>
        </mxCell>
        <mxCell id="rBbrOvxkI2eQkgzvAiDd-13" value="" style="endArrow=classic;html=1;rounded=0;entryX=0.25;entryY=1;entryDx=0;entryDy=0;" parent="1" target="5hOX7IJOSLs_VAfinWYP-2" edge="1">
          <mxGeometry width="50" height="50" relative="1" as="geometry">
            <mxPoint x="590" y="840" as="sourcePoint" />
            <mxPoint x="210" y="680" as="targetPoint" />
            <Array as="points">
              <mxPoint x="210" y="840" />
            </Array>
          </mxGeometry>
        </mxCell>
        <mxCell id="t1U4XZlZf3KGIsiAwEqT-1" value="" style="endArrow=classic;html=1;rounded=0;entryX=0;entryY=0;entryDx=0;entryDy=0;" parent="1" edge="1">
          <mxGeometry width="50" height="50" relative="1" as="geometry">
            <mxPoint x="170" y="280" as="sourcePoint" />
            <mxPoint x="170" y="400" as="targetPoint" />
          </mxGeometry>
        </mxCell>
        <mxCell id="t1U4XZlZf3KGIsiAwEqT-2" value="Правила&lt;div&gt;работы&lt;/div&gt;&lt;div&gt;системы&lt;/div&gt;" style="edgeLabel;html=1;align=center;verticalAlign=middle;resizable=0;points=[];" parent="t1U4XZlZf3KGIsiAwEqT-1" vertex="1" connectable="0">
          <mxGeometry x="-0.2027" relative="1" as="geometry">
            <mxPoint x="48" y="-28" as="offset" />
          </mxGeometry>
        </mxCell>
        <mxCell id="t1U4XZlZf3KGIsiAwEqT-3" value="" style="endArrow=classic;html=1;rounded=0;entryX=0;entryY=0;entryDx=0;entryDy=0;" parent="1" edge="1">
          <mxGeometry width="50" height="50" relative="1" as="geometry">
            <mxPoint x="249.99999999999986" y="280" as="sourcePoint" />
            <mxPoint x="249.99999999999986" y="400" as="targetPoint" />
          </mxGeometry>
        </mxCell>
        <mxCell id="t1U4XZlZf3KGIsiAwEqT-4" value="Регуляторные&lt;div&gt;требования&lt;/div&gt;" style="edgeLabel;html=1;align=center;verticalAlign=middle;resizable=0;points=[];" parent="t1U4XZlZf3KGIsiAwEqT-3" vertex="1" connectable="0">
          <mxGeometry x="-0.2027" relative="1" as="geometry">
            <mxPoint x="50" y="-28" as="offset" />
          </mxGeometry>
        </mxCell>
        <mxCell id="t1U4XZlZf3KGIsiAwEqT-5" value="" style="endArrow=classic;html=1;rounded=0;entryX=0;entryY=0;entryDx=0;entryDy=0;" parent="1" edge="1">
          <mxGeometry width="50" height="50" relative="1" as="geometry">
            <mxPoint x="349.9999999999999" y="280" as="sourcePoint" />
            <mxPoint x="349.9999999999999" y="400" as="targetPoint" />
          </mxGeometry>
        </mxCell>
        <mxCell id="t1U4XZlZf3KGIsiAwEqT-6" value="Законы РБ" style="edgeLabel;html=1;align=center;verticalAlign=middle;resizable=0;points=[];" parent="t1U4XZlZf3KGIsiAwEqT-5" vertex="1" connectable="0">
          <mxGeometry x="-0.2027" relative="1" as="geometry">
            <mxPoint x="42" y="-28" as="offset" />
          </mxGeometry>
        </mxCell>
        <mxCell id="t1U4XZlZf3KGIsiAwEqT-8" value="" style="endArrow=classic;html=1;rounded=0;entryX=0.75;entryY=0;entryDx=0;entryDy=0;" parent="1" target="qtg1fcG4lJOulJlhz4ir-5" edge="1">
          <mxGeometry width="50" height="50" relative="1" as="geometry">
            <mxPoint x="350" y="330" as="sourcePoint" />
            <mxPoint x="470" y="330" as="targetPoint" />
            <Array as="points">
              <mxPoint x="590" y="330" />
            </Array>
          </mxGeometry>
        </mxCell>
        <mxCell id="t1U4XZlZf3KGIsiAwEqT-9" value="" style="endArrow=classic;html=1;rounded=0;entryX=0.5;entryY=0;entryDx=0;entryDy=0;" parent="1" target="qtg1fcG4lJOulJlhz4ir-5" edge="1">
          <mxGeometry width="50" height="50" relative="1" as="geometry">
            <mxPoint x="250" y="350" as="sourcePoint" />
            <mxPoint x="480" y="370" as="targetPoint" />
            <Array as="points">
              <mxPoint x="540" y="350" />
            </Array>
          </mxGeometry>
        </mxCell>
        <mxCell id="t1U4XZlZf3KGIsiAwEqT-10" value="" style="endArrow=classic;html=1;rounded=0;entryX=0.25;entryY=0;entryDx=0;entryDy=0;" parent="1" target="qtg1fcG4lJOulJlhz4ir-5" edge="1">
          <mxGeometry width="50" height="50" relative="1" as="geometry">
            <mxPoint x="170" y="370" as="sourcePoint" />
            <mxPoint x="460" y="400" as="targetPoint" />
            <Array as="points">
              <mxPoint x="490" y="370" />
            </Array>
          </mxGeometry>
        </mxCell>
        <mxCell id="t1U4XZlZf3KGIsiAwEqT-11" value="" style="endArrow=classic;html=1;rounded=0;entryX=0.75;entryY=0;entryDx=0;entryDy=0;" parent="1" target="qtg1fcG4lJOulJlhz4ir-2" edge="1">
          <mxGeometry width="50" height="50" relative="1" as="geometry">
            <mxPoint x="540" y="350" as="sourcePoint" />
            <mxPoint x="870" y="500" as="targetPoint" />
            <Array as="points">
              <mxPoint x="870" y="350" />
            </Array>
          </mxGeometry>
        </mxCell>
        <mxCell id="t1U4XZlZf3KGIsiAwEqT-13" value="" style="endArrow=classic;html=1;rounded=0;entryX=0.25;entryY=0;entryDx=0;entryDy=0;" parent="1" target="qtg1fcG4lJOulJlhz4ir-2" edge="1">
          <mxGeometry width="50" height="50" relative="1" as="geometry">
            <mxPoint x="490" y="370" as="sourcePoint" />
            <mxPoint x="770" y="500" as="targetPoint" />
            <Array as="points">
              <mxPoint x="770" y="370" />
            </Array>
          </mxGeometry>
        </mxCell>
        <mxCell id="t1U4XZlZf3KGIsiAwEqT-14" value="" style="endArrow=classic;html=1;rounded=0;entryX=0.75;entryY=0;entryDx=0;entryDy=0;" parent="1" target="qtg1fcG4lJOulJlhz4ir-8" edge="1">
          <mxGeometry width="50" height="50" relative="1" as="geometry">
            <mxPoint x="870" y="350" as="sourcePoint" />
            <mxPoint x="1210" y="600" as="targetPoint" />
            <Array as="points">
              <mxPoint x="1150" y="350" />
            </Array>
          </mxGeometry>
        </mxCell>
        <mxCell id="t1U4XZlZf3KGIsiAwEqT-15" value="" style="endArrow=classic;html=1;rounded=0;entryX=0.25;entryY=0;entryDx=0;entryDy=0;" parent="1" target="qtg1fcG4lJOulJlhz4ir-8" edge="1">
          <mxGeometry width="50" height="50" relative="1" as="geometry">
            <mxPoint x="770" y="370" as="sourcePoint" />
            <mxPoint x="1050" y="560" as="targetPoint" />
            <Array as="points">
              <mxPoint x="1050" y="370" />
            </Array>
          </mxGeometry>
        </mxCell>
      </root>
    </mxGraphModel>
  </diagram>
  <diagram id="uzMdAMs16Y6SOQGAQOg8" name="A4.3">
    <mxGraphModel dx="1216" dy="1232" grid="1" gridSize="10" guides="1" tooltips="1" connect="1" arrows="1" fold="1" page="1" pageScale="1" pageWidth="850" pageHeight="1100" math="0" shadow="0">
      <root>
        <mxCell id="0" />
        <mxCell id="1" parent="0" />
        <mxCell id="7zullKVPL_ZqEEA9Gk6b-1" value="" style="group" parent="1" vertex="1" connectable="0">
          <mxGeometry x="1080" y="480" width="200" height="120" as="geometry" />
        </mxCell>
        <mxCell id="7zullKVPL_ZqEEA9Gk6b-2" value="&lt;div&gt;Сформировать заголовок уведомления&lt;/div&gt;" style="rounded=0;whiteSpace=wrap;html=1;movable=1;resizable=1;rotatable=1;deletable=1;editable=1;locked=0;connectable=1;" parent="7zullKVPL_ZqEEA9Gk6b-1" vertex="1">
          <mxGeometry width="199.99999999999997" height="119.99999999999999" as="geometry" />
        </mxCell>
        <mxCell id="7zullKVPL_ZqEEA9Gk6b-3" value="&lt;font style=&quot;font-size: 10px;&quot;&gt;1&lt;/font&gt;" style="text;html=1;align=center;verticalAlign=middle;whiteSpace=wrap;rounded=0;movable=1;resizable=1;rotatable=1;deletable=1;editable=1;locked=0;connectable=1;" parent="7zullKVPL_ZqEEA9Gk6b-1" vertex="1">
          <mxGeometry x="174.35897435897436" y="90" width="25.641025641025642" height="30" as="geometry" />
        </mxCell>
        <mxCell id="-a87RJwp_N90L5mVVsi2-1" value="" style="endArrow=classic;html=1;rounded=0;entryX=0;entryY=0.25;entryDx=0;entryDy=0;" parent="1" edge="1">
          <mxGeometry width="50" height="50" relative="1" as="geometry">
            <mxPoint x="960" y="539.83" as="sourcePoint" />
            <mxPoint x="1080" y="539.83" as="targetPoint" />
          </mxGeometry>
        </mxCell>
        <mxCell id="-a87RJwp_N90L5mVVsi2-2" value="Выполненная&lt;div&gt;транзакция&lt;/div&gt;" style="edgeLabel;html=1;align=center;verticalAlign=middle;resizable=0;points=[];" parent="-a87RJwp_N90L5mVVsi2-1" vertex="1" connectable="0">
          <mxGeometry x="-0.1529" y="-1" relative="1" as="geometry">
            <mxPoint x="4" y="-21" as="offset" />
          </mxGeometry>
        </mxCell>
        <mxCell id="-a87RJwp_N90L5mVVsi2-3" value="" style="group" parent="1" vertex="1" connectable="0">
          <mxGeometry x="1360" y="560" width="200" height="120" as="geometry" />
        </mxCell>
        <mxCell id="-a87RJwp_N90L5mVVsi2-4" value="&lt;div&gt;&lt;span style=&quot;background-color: transparent; color: light-dark(rgb(0, 0, 0), rgb(255, 255, 255));&quot;&gt;Сформировать&lt;/span&gt;&amp;nbsp;основное сообщение уведомления&lt;/div&gt;" style="rounded=0;whiteSpace=wrap;html=1;movable=1;resizable=1;rotatable=1;deletable=1;editable=1;locked=0;connectable=1;" parent="-a87RJwp_N90L5mVVsi2-3" vertex="1">
          <mxGeometry width="199.99999999999997" height="119.99999999999999" as="geometry" />
        </mxCell>
        <mxCell id="-a87RJwp_N90L5mVVsi2-5" value="&lt;font style=&quot;font-size: 10px;&quot;&gt;2&lt;/font&gt;" style="text;html=1;align=center;verticalAlign=middle;whiteSpace=wrap;rounded=0;movable=1;resizable=1;rotatable=1;deletable=1;editable=1;locked=0;connectable=1;" parent="-a87RJwp_N90L5mVVsi2-3" vertex="1">
          <mxGeometry x="174.35897435897436" y="90" width="25.641025641025642" height="30" as="geometry" />
        </mxCell>
        <mxCell id="-a87RJwp_N90L5mVVsi2-6" value="" style="edgeStyle=orthogonalEdgeStyle;rounded=0;orthogonalLoop=1;jettySize=auto;html=1;" parent="1" source="7zullKVPL_ZqEEA9Gk6b-2" target="-a87RJwp_N90L5mVVsi2-4" edge="1">
          <mxGeometry relative="1" as="geometry" />
        </mxCell>
        <mxCell id="aEHmuusxqtasW1hobBFT-1" value="Сформированный&lt;div&gt;заголовок&lt;/div&gt;" style="edgeLabel;html=1;align=center;verticalAlign=middle;resizable=0;points=[];" parent="-a87RJwp_N90L5mVVsi2-6" vertex="1" connectable="0">
          <mxGeometry x="-0.1292" y="2" relative="1" as="geometry">
            <mxPoint x="48" y="-50" as="offset" />
          </mxGeometry>
        </mxCell>
        <mxCell id="-a87RJwp_N90L5mVVsi2-7" value="" style="group" parent="1" vertex="1" connectable="0">
          <mxGeometry x="1640" y="640" width="200" height="120" as="geometry" />
        </mxCell>
        <mxCell id="-a87RJwp_N90L5mVVsi2-8" value="&lt;div&gt;&lt;span style=&quot;background-color: transparent; color: light-dark(rgb(0, 0, 0), rgb(255, 255, 255));&quot;&gt;Сформировать&amp;nbsp;&lt;/span&gt;футер уведомления&lt;/div&gt;" style="rounded=0;whiteSpace=wrap;html=1;movable=1;resizable=1;rotatable=1;deletable=1;editable=1;locked=0;connectable=1;" parent="-a87RJwp_N90L5mVVsi2-7" vertex="1">
          <mxGeometry width="199.99999999999997" height="119.99999999999999" as="geometry" />
        </mxCell>
        <mxCell id="-a87RJwp_N90L5mVVsi2-9" value="&lt;font style=&quot;font-size: 10px;&quot;&gt;3&lt;/font&gt;" style="text;html=1;align=center;verticalAlign=middle;whiteSpace=wrap;rounded=0;movable=1;resizable=1;rotatable=1;deletable=1;editable=1;locked=0;connectable=1;" parent="-a87RJwp_N90L5mVVsi2-7" vertex="1">
          <mxGeometry x="174.35897435897436" y="90" width="25.641025641025642" height="30" as="geometry" />
        </mxCell>
        <mxCell id="-a87RJwp_N90L5mVVsi2-10" value="" style="edgeStyle=orthogonalEdgeStyle;rounded=0;orthogonalLoop=1;jettySize=auto;html=1;" parent="1" source="-a87RJwp_N90L5mVVsi2-4" target="-a87RJwp_N90L5mVVsi2-8" edge="1">
          <mxGeometry relative="1" as="geometry" />
        </mxCell>
        <mxCell id="aEHmuusxqtasW1hobBFT-2" value="Сформированное&lt;div&gt;основное&lt;/div&gt;&lt;div&gt;сообщение&lt;/div&gt;" style="edgeLabel;html=1;align=center;verticalAlign=middle;resizable=0;points=[];" parent="-a87RJwp_N90L5mVVsi2-10" vertex="1" connectable="0">
          <mxGeometry x="-0.025" y="2" relative="1" as="geometry">
            <mxPoint x="38" y="-58" as="offset" />
          </mxGeometry>
        </mxCell>
        <mxCell id="-a87RJwp_N90L5mVVsi2-11" value="" style="endArrow=classic;html=1;rounded=0;entryX=0;entryY=0.25;entryDx=0;entryDy=0;" parent="1" edge="1">
          <mxGeometry width="50" height="50" relative="1" as="geometry">
            <mxPoint x="1840" y="710" as="sourcePoint" />
            <mxPoint x="1960" y="710" as="targetPoint" />
          </mxGeometry>
        </mxCell>
        <mxCell id="-a87RJwp_N90L5mVVsi2-12" value="Уведомление&lt;div&gt;для пользователя&lt;/div&gt;" style="edgeLabel;html=1;align=center;verticalAlign=middle;resizable=0;points=[];" parent="-a87RJwp_N90L5mVVsi2-11" vertex="1" connectable="0">
          <mxGeometry x="-0.1529" y="-1" relative="1" as="geometry">
            <mxPoint x="4" y="-21" as="offset" />
          </mxGeometry>
        </mxCell>
        <mxCell id="x-g28gjsFnXK97gEZFcQ-1" value="" style="endArrow=classic;html=1;rounded=0;entryX=0;entryY=1;entryDx=0;entryDy=0;" parent="1" edge="1">
          <mxGeometry width="50" height="50" relative="1" as="geometry">
            <mxPoint x="1669.9999999999998" y="880" as="sourcePoint" />
            <mxPoint x="1669.9999999999998" y="760" as="targetPoint" />
          </mxGeometry>
        </mxCell>
        <mxCell id="x-g28gjsFnXK97gEZFcQ-2" value="Клиентское&lt;div&gt;приложение&lt;/div&gt;" style="edgeLabel;html=1;align=center;verticalAlign=middle;resizable=0;points=[];" parent="x-g28gjsFnXK97gEZFcQ-1" vertex="1" connectable="0">
          <mxGeometry x="0.0846" relative="1" as="geometry">
            <mxPoint x="-40" y="45" as="offset" />
          </mxGeometry>
        </mxCell>
        <mxCell id="x-g28gjsFnXK97gEZFcQ-3" value="" style="endArrow=classic;html=1;rounded=0;entryX=0;entryY=1;entryDx=0;entryDy=0;" parent="1" edge="1">
          <mxGeometry width="50" height="50" relative="1" as="geometry">
            <mxPoint x="1730.59" y="880" as="sourcePoint" />
            <mxPoint x="1730.59" y="760" as="targetPoint" />
          </mxGeometry>
        </mxCell>
        <mxCell id="x-g28gjsFnXK97gEZFcQ-4" value="Сервер" style="edgeLabel;html=1;align=center;verticalAlign=middle;resizable=0;points=[];" parent="x-g28gjsFnXK97gEZFcQ-3" vertex="1" connectable="0">
          <mxGeometry x="0.0846" relative="1" as="geometry">
            <mxPoint x="-30" y="45" as="offset" />
          </mxGeometry>
        </mxCell>
        <mxCell id="x-g28gjsFnXK97gEZFcQ-5" value="" style="endArrow=classic;html=1;rounded=0;entryX=0;entryY=1;entryDx=0;entryDy=0;" parent="1" edge="1">
          <mxGeometry width="50" height="50" relative="1" as="geometry">
            <mxPoint x="1799.5900000000001" y="880" as="sourcePoint" />
            <mxPoint x="1799.5900000000001" y="760" as="targetPoint" />
          </mxGeometry>
        </mxCell>
        <mxCell id="x-g28gjsFnXK97gEZFcQ-6" value="База&lt;br&gt;данных" style="edgeLabel;html=1;align=center;verticalAlign=middle;resizable=0;points=[];" parent="x-g28gjsFnXK97gEZFcQ-5" vertex="1" connectable="0">
          <mxGeometry x="0.0846" relative="1" as="geometry">
            <mxPoint x="-30" y="45" as="offset" />
          </mxGeometry>
        </mxCell>
        <mxCell id="KdD3T4COp-8b4yn6taWB-1" value="" style="endArrow=classic;html=1;rounded=0;entryX=0.75;entryY=1;entryDx=0;entryDy=0;" parent="1" target="-a87RJwp_N90L5mVVsi2-4" edge="1">
          <mxGeometry width="50" height="50" relative="1" as="geometry">
            <mxPoint x="1730" y="800" as="sourcePoint" />
            <mxPoint x="1510" y="680" as="targetPoint" />
            <Array as="points">
              <mxPoint x="1510" y="800" />
            </Array>
          </mxGeometry>
        </mxCell>
        <mxCell id="KdD3T4COp-8b4yn6taWB-2" value="" style="endArrow=classic;html=1;rounded=0;entryX=0.25;entryY=1;entryDx=0;entryDy=0;" parent="1" target="-a87RJwp_N90L5mVVsi2-4" edge="1">
          <mxGeometry width="50" height="50" relative="1" as="geometry">
            <mxPoint x="1800" y="840" as="sourcePoint" />
            <mxPoint x="1390" y="680" as="targetPoint" />
            <Array as="points">
              <mxPoint x="1410" y="840" />
            </Array>
          </mxGeometry>
        </mxCell>
        <mxCell id="KdD3T4COp-8b4yn6taWB-3" value="" style="endArrow=classic;html=1;rounded=0;entryX=0.5;entryY=1;entryDx=0;entryDy=0;" parent="1" target="-a87RJwp_N90L5mVVsi2-4" edge="1">
          <mxGeometry width="50" height="50" relative="1" as="geometry">
            <mxPoint x="1670" y="820" as="sourcePoint" />
            <mxPoint x="1450" y="690" as="targetPoint" />
            <Array as="points">
              <mxPoint x="1460" y="820" />
            </Array>
          </mxGeometry>
        </mxCell>
        <mxCell id="KdD3T4COp-8b4yn6taWB-4" value="" style="endArrow=classic;html=1;rounded=0;entryX=0.75;entryY=1;entryDx=0;entryDy=0;" parent="1" target="7zullKVPL_ZqEEA9Gk6b-2" edge="1">
          <mxGeometry width="50" height="50" relative="1" as="geometry">
            <mxPoint x="1510" y="800" as="sourcePoint" />
            <mxPoint x="1290" y="680" as="targetPoint" />
            <Array as="points">
              <mxPoint x="1230" y="800" />
            </Array>
          </mxGeometry>
        </mxCell>
        <mxCell id="KdD3T4COp-8b4yn6taWB-5" value="" style="endArrow=classic;html=1;rounded=0;entryX=0.5;entryY=1;entryDx=0;entryDy=0;" parent="1" target="7zullKVPL_ZqEEA9Gk6b-2" edge="1">
          <mxGeometry width="50" height="50" relative="1" as="geometry">
            <mxPoint x="1460" y="820" as="sourcePoint" />
            <mxPoint x="1250" y="680" as="targetPoint" />
            <Array as="points">
              <mxPoint x="1180" y="820" />
            </Array>
          </mxGeometry>
        </mxCell>
        <mxCell id="KdD3T4COp-8b4yn6taWB-6" value="" style="endArrow=classic;html=1;rounded=0;entryX=0.25;entryY=1;entryDx=0;entryDy=0;" parent="1" target="7zullKVPL_ZqEEA9Gk6b-2" edge="1">
          <mxGeometry width="50" height="50" relative="1" as="geometry">
            <mxPoint x="1410" y="840" as="sourcePoint" />
            <mxPoint x="1020" y="680" as="targetPoint" />
            <Array as="points">
              <mxPoint x="1130" y="840" />
            </Array>
          </mxGeometry>
        </mxCell>
        <mxCell id="ZoHuTEb6V6c8Qo2AQNyZ-1" value="" style="endArrow=classic;html=1;rounded=0;entryX=0;entryY=0;entryDx=0;entryDy=0;" parent="1" edge="1">
          <mxGeometry width="50" height="50" relative="1" as="geometry">
            <mxPoint x="1179.71" y="360" as="sourcePoint" />
            <mxPoint x="1179.71" y="480" as="targetPoint" />
          </mxGeometry>
        </mxCell>
        <mxCell id="ZoHuTEb6V6c8Qo2AQNyZ-2" value="Правила&lt;div&gt;работы&lt;/div&gt;&lt;div&gt;системы&lt;/div&gt;" style="edgeLabel;html=1;align=center;verticalAlign=middle;resizable=0;points=[];" parent="ZoHuTEb6V6c8Qo2AQNyZ-1" vertex="1" connectable="0">
          <mxGeometry x="-0.2027" relative="1" as="geometry">
            <mxPoint x="48" y="-28" as="offset" />
          </mxGeometry>
        </mxCell>
        <mxCell id="ZoHuTEb6V6c8Qo2AQNyZ-3" value="" style="endArrow=classic;html=1;rounded=0;entryX=0.5;entryY=0;entryDx=0;entryDy=0;" parent="1" target="-a87RJwp_N90L5mVVsi2-4" edge="1">
          <mxGeometry width="50" height="50" relative="1" as="geometry">
            <mxPoint x="1180" y="420" as="sourcePoint" />
            <mxPoint x="1320" y="410" as="targetPoint" />
            <Array as="points">
              <mxPoint x="1460" y="420" />
            </Array>
          </mxGeometry>
        </mxCell>
        <mxCell id="ZoHuTEb6V6c8Qo2AQNyZ-4" value="" style="endArrow=classic;html=1;rounded=0;entryX=0.5;entryY=0;entryDx=0;entryDy=0;" parent="1" target="-a87RJwp_N90L5mVVsi2-8" edge="1">
          <mxGeometry width="50" height="50" relative="1" as="geometry">
            <mxPoint x="1460" y="420" as="sourcePoint" />
            <mxPoint x="1740" y="560" as="targetPoint" />
            <Array as="points">
              <mxPoint x="1740" y="420" />
            </Array>
          </mxGeometry>
        </mxCell>
      </root>
    </mxGraphModel>
  </diagram>
  <diagram id="S6WP6-Hh5rTmbHcf757m" name="A2.2.1">
    <mxGraphModel dx="2066" dy="1232" grid="1" gridSize="10" guides="1" tooltips="1" connect="1" arrows="1" fold="1" page="1" pageScale="1" pageWidth="850" pageHeight="1100" math="0" shadow="0">
      <root>
        <mxCell id="0" />
        <mxCell id="1" parent="0" />
        <mxCell id="NC090S2QjEuzGNGGAe3x-1" value="" style="group" parent="1" vertex="1" connectable="0">
          <mxGeometry x="160" y="400" width="200" height="120" as="geometry" />
        </mxCell>
        <mxCell id="NC090S2QjEuzGNGGAe3x-2" value="Проверить существование&amp;nbsp;ID компании" style="rounded=0;whiteSpace=wrap;html=1;movable=1;resizable=1;rotatable=1;deletable=1;editable=1;locked=0;connectable=1;" parent="NC090S2QjEuzGNGGAe3x-1" vertex="1">
          <mxGeometry width="199.99999999999997" height="119.99999999999999" as="geometry" />
        </mxCell>
        <mxCell id="NC090S2QjEuzGNGGAe3x-3" value="&lt;font style=&quot;font-size: 10px;&quot;&gt;1&lt;/font&gt;" style="text;html=1;align=center;verticalAlign=middle;whiteSpace=wrap;rounded=0;movable=1;resizable=1;rotatable=1;deletable=1;editable=1;locked=0;connectable=1;" parent="NC090S2QjEuzGNGGAe3x-1" vertex="1">
          <mxGeometry x="174.35897435897436" y="90" width="25.641025641025642" height="30" as="geometry" />
        </mxCell>
        <mxCell id="NC090S2QjEuzGNGGAe3x-4" value="Проверить существование&lt;br&gt;&lt;div&gt;названия компании&lt;/div&gt;" style="rounded=0;whiteSpace=wrap;html=1;movable=1;resizable=1;rotatable=1;deletable=1;editable=1;locked=0;connectable=1;" parent="1" vertex="1">
          <mxGeometry x="440" y="480" width="199.99999999999997" height="119.99999999999999" as="geometry" />
        </mxCell>
        <mxCell id="NC090S2QjEuzGNGGAe3x-5" value="" style="edgeStyle=orthogonalEdgeStyle;rounded=0;orthogonalLoop=1;jettySize=auto;html=1;" parent="1" source="NC090S2QjEuzGNGGAe3x-2" target="NC090S2QjEuzGNGGAe3x-4" edge="1">
          <mxGeometry relative="1" as="geometry" />
        </mxCell>
        <mxCell id="NC090S2QjEuzGNGGAe3x-6" value="Подтверждение&lt;div&gt;существования ID&lt;/div&gt;" style="edgeLabel;html=1;align=center;verticalAlign=middle;resizable=0;points=[];" parent="NC090S2QjEuzGNGGAe3x-5" vertex="1" connectable="0">
          <mxGeometry x="-0.175" y="-1" relative="1" as="geometry">
            <mxPoint x="31" y="-56" as="offset" />
          </mxGeometry>
        </mxCell>
        <mxCell id="ru4ujHdF1QJJJu5si68e-1" value="" style="endArrow=classic;html=1;rounded=0;flowAnimation=0;shadow=0;" parent="1" edge="1">
          <mxGeometry width="50" height="50" relative="1" as="geometry">
            <mxPoint x="40" y="429.99999999999994" as="sourcePoint" />
            <mxPoint x="160" y="429.99999999999994" as="targetPoint" />
          </mxGeometry>
        </mxCell>
        <mxCell id="ru4ujHdF1QJJJu5si68e-2" value="Наличие&lt;div&gt;подтверждения&lt;div&gt;доступа&lt;/div&gt;&lt;/div&gt;" style="edgeLabel;html=1;align=center;verticalAlign=middle;resizable=0;points=[];" parent="ru4ujHdF1QJJJu5si68e-1" vertex="1" connectable="0">
          <mxGeometry x="-0.1529" y="-1" relative="1" as="geometry">
            <mxPoint x="4" y="-30" as="offset" />
          </mxGeometry>
        </mxCell>
        <mxCell id="cbdpyVxCT0amWvaI6z9u-1" value="" style="endArrow=classic;html=1;rounded=0;flowAnimation=0;shadow=0;" parent="1" edge="1">
          <mxGeometry width="50" height="50" relative="1" as="geometry">
            <mxPoint x="40" y="489.99999999999994" as="sourcePoint" />
            <mxPoint x="160" y="489.99999999999994" as="targetPoint" />
          </mxGeometry>
        </mxCell>
        <mxCell id="cbdpyVxCT0amWvaI6z9u-2" value="Запрос на&lt;div&gt;транзакцию&lt;/div&gt;" style="edgeLabel;html=1;align=center;verticalAlign=middle;resizable=0;points=[];" parent="cbdpyVxCT0amWvaI6z9u-1" vertex="1" connectable="0">
          <mxGeometry x="-0.1529" y="-1" relative="1" as="geometry">
            <mxPoint x="4" y="-30" as="offset" />
          </mxGeometry>
        </mxCell>
        <mxCell id="cbdpyVxCT0amWvaI6z9u-3" value="" style="endArrow=classic;html=1;rounded=0;flowAnimation=0;shadow=0;" parent="1" edge="1">
          <mxGeometry width="50" height="50" relative="1" as="geometry">
            <mxPoint x="640" y="539.66" as="sourcePoint" />
            <mxPoint x="760" y="539.66" as="targetPoint" />
          </mxGeometry>
        </mxCell>
        <mxCell id="cbdpyVxCT0amWvaI6z9u-4" value="Подтверждение&lt;div&gt;существования&lt;/div&gt;&lt;div&gt;компании&lt;/div&gt;" style="edgeLabel;html=1;align=center;verticalAlign=middle;resizable=0;points=[];" parent="cbdpyVxCT0amWvaI6z9u-3" vertex="1" connectable="0">
          <mxGeometry x="-0.1529" y="-1" relative="1" as="geometry">
            <mxPoint x="4" y="-30" as="offset" />
          </mxGeometry>
        </mxCell>
        <mxCell id="LRoAIMdDgQmVtN_WyqJI-1" value="" style="endArrow=classic;html=1;rounded=0;entryX=0.25;entryY=1;entryDx=0;entryDy=0;" parent="1" edge="1">
          <mxGeometry width="50" height="50" relative="1" as="geometry">
            <mxPoint x="490" y="720" as="sourcePoint" />
            <mxPoint x="490" y="600" as="targetPoint" />
          </mxGeometry>
        </mxCell>
        <mxCell id="LRoAIMdDgQmVtN_WyqJI-2" value="Сервер" style="edgeLabel;html=1;align=center;verticalAlign=middle;resizable=0;points=[];" parent="LRoAIMdDgQmVtN_WyqJI-1" vertex="1" connectable="0">
          <mxGeometry x="0.0846" relative="1" as="geometry">
            <mxPoint x="-30" y="45" as="offset" />
          </mxGeometry>
        </mxCell>
        <mxCell id="LRoAIMdDgQmVtN_WyqJI-3" value="" style="endArrow=classic;html=1;rounded=0;entryX=0.75;entryY=1;entryDx=0;entryDy=0;" parent="1" edge="1">
          <mxGeometry width="50" height="50" relative="1" as="geometry">
            <mxPoint x="590" y="720" as="sourcePoint" />
            <mxPoint x="590" y="600" as="targetPoint" />
          </mxGeometry>
        </mxCell>
        <mxCell id="LRoAIMdDgQmVtN_WyqJI-4" value="База&lt;br&gt;данных" style="edgeLabel;html=1;align=center;verticalAlign=middle;resizable=0;points=[];" parent="LRoAIMdDgQmVtN_WyqJI-3" vertex="1" connectable="0">
          <mxGeometry x="0.0846" relative="1" as="geometry">
            <mxPoint x="-30" y="45" as="offset" />
          </mxGeometry>
        </mxCell>
        <mxCell id="LRoAIMdDgQmVtN_WyqJI-5" value="" style="endArrow=classic;html=1;rounded=0;entryX=0.75;entryY=1;entryDx=0;entryDy=0;" parent="1" edge="1">
          <mxGeometry width="50" height="50" relative="1" as="geometry">
            <mxPoint x="490" y="660" as="sourcePoint" />
            <mxPoint x="310" y="520" as="targetPoint" />
            <Array as="points">
              <mxPoint x="310" y="660" />
            </Array>
          </mxGeometry>
        </mxCell>
        <mxCell id="LRoAIMdDgQmVtN_WyqJI-6" value="" style="endArrow=classic;html=1;rounded=0;entryX=0.25;entryY=1;entryDx=0;entryDy=0;" parent="1" edge="1">
          <mxGeometry width="50" height="50" relative="1" as="geometry">
            <mxPoint x="590" y="680" as="sourcePoint" />
            <mxPoint x="210" y="520" as="targetPoint" />
            <Array as="points">
              <mxPoint x="210" y="680" />
            </Array>
          </mxGeometry>
        </mxCell>
        <mxCell id="GBbFeHDZkLb_ry0Vw3jZ-1" value="" style="endArrow=classic;html=1;rounded=0;entryX=0;entryY=0;entryDx=0;entryDy=0;" parent="1" edge="1">
          <mxGeometry width="50" height="50" relative="1" as="geometry">
            <mxPoint x="170" y="280" as="sourcePoint" />
            <mxPoint x="170" y="400" as="targetPoint" />
          </mxGeometry>
        </mxCell>
        <mxCell id="GBbFeHDZkLb_ry0Vw3jZ-2" value="Правила&lt;div&gt;работы&lt;/div&gt;&lt;div&gt;системы&lt;/div&gt;" style="edgeLabel;html=1;align=center;verticalAlign=middle;resizable=0;points=[];" parent="GBbFeHDZkLb_ry0Vw3jZ-1" vertex="1" connectable="0">
          <mxGeometry x="-0.2027" relative="1" as="geometry">
            <mxPoint x="48" y="-28" as="offset" />
          </mxGeometry>
        </mxCell>
        <mxCell id="GBbFeHDZkLb_ry0Vw3jZ-3" value="" style="endArrow=classic;html=1;rounded=0;entryX=0;entryY=0;entryDx=0;entryDy=0;" parent="1" edge="1">
          <mxGeometry width="50" height="50" relative="1" as="geometry">
            <mxPoint x="249.99999999999986" y="280" as="sourcePoint" />
            <mxPoint x="249.99999999999986" y="400" as="targetPoint" />
          </mxGeometry>
        </mxCell>
        <mxCell id="GBbFeHDZkLb_ry0Vw3jZ-4" value="Регуляторные&lt;div&gt;требования&lt;/div&gt;" style="edgeLabel;html=1;align=center;verticalAlign=middle;resizable=0;points=[];" parent="GBbFeHDZkLb_ry0Vw3jZ-3" vertex="1" connectable="0">
          <mxGeometry x="-0.2027" relative="1" as="geometry">
            <mxPoint x="50" y="-28" as="offset" />
          </mxGeometry>
        </mxCell>
        <mxCell id="GBbFeHDZkLb_ry0Vw3jZ-5" value="" style="endArrow=classic;html=1;rounded=0;entryX=0;entryY=0;entryDx=0;entryDy=0;" parent="1" edge="1">
          <mxGeometry width="50" height="50" relative="1" as="geometry">
            <mxPoint x="349.9999999999999" y="280" as="sourcePoint" />
            <mxPoint x="349.9999999999999" y="400" as="targetPoint" />
          </mxGeometry>
        </mxCell>
        <mxCell id="GBbFeHDZkLb_ry0Vw3jZ-6" value="Законы РБ" style="edgeLabel;html=1;align=center;verticalAlign=middle;resizable=0;points=[];" parent="GBbFeHDZkLb_ry0Vw3jZ-5" vertex="1" connectable="0">
          <mxGeometry x="-0.2027" relative="1" as="geometry">
            <mxPoint x="42" y="-28" as="offset" />
          </mxGeometry>
        </mxCell>
        <mxCell id="GBbFeHDZkLb_ry0Vw3jZ-7" value="" style="endArrow=classic;html=1;rounded=0;entryX=0.75;entryY=0;entryDx=0;entryDy=0;" parent="1" edge="1">
          <mxGeometry width="50" height="50" relative="1" as="geometry">
            <mxPoint x="350" y="330" as="sourcePoint" />
            <mxPoint x="590" y="480" as="targetPoint" />
            <Array as="points">
              <mxPoint x="590" y="330" />
            </Array>
          </mxGeometry>
        </mxCell>
        <mxCell id="GBbFeHDZkLb_ry0Vw3jZ-8" value="" style="endArrow=classic;html=1;rounded=0;entryX=0.5;entryY=0;entryDx=0;entryDy=0;" parent="1" edge="1">
          <mxGeometry width="50" height="50" relative="1" as="geometry">
            <mxPoint x="250" y="350" as="sourcePoint" />
            <mxPoint x="540" y="480" as="targetPoint" />
            <Array as="points">
              <mxPoint x="540" y="350" />
            </Array>
          </mxGeometry>
        </mxCell>
        <mxCell id="GBbFeHDZkLb_ry0Vw3jZ-9" value="" style="endArrow=classic;html=1;rounded=0;entryX=0.25;entryY=0;entryDx=0;entryDy=0;" parent="1" edge="1">
          <mxGeometry width="50" height="50" relative="1" as="geometry">
            <mxPoint x="170" y="370" as="sourcePoint" />
            <mxPoint x="490" y="480" as="targetPoint" />
            <Array as="points">
              <mxPoint x="490" y="370" />
            </Array>
          </mxGeometry>
        </mxCell>
        <mxCell id="E-PyXSxKGlrtJ12G1Iiv-1" value="&lt;font style=&quot;font-size: 10px;&quot;&gt;2&lt;/font&gt;" style="text;html=1;align=center;verticalAlign=middle;whiteSpace=wrap;rounded=0;movable=1;resizable=1;rotatable=1;deletable=1;editable=1;locked=0;connectable=1;" vertex="1" parent="1">
          <mxGeometry x="614.3589743589744" y="570" width="25.641025641025642" height="30" as="geometry" />
        </mxCell>
      </root>
    </mxGraphModel>
  </diagram>
  <diagram name="A2.2.2" id="6WGTsx7RQB-OXI3_VqQX">
    <mxGraphModel dx="2066" dy="1232" grid="1" gridSize="10" guides="1" tooltips="1" connect="1" arrows="1" fold="1" page="1" pageScale="1" pageWidth="850" pageHeight="1100" math="0" shadow="0">
      <root>
        <mxCell id="PqZt3gQjXwHNJCz26DAP-0" />
        <mxCell id="PqZt3gQjXwHNJCz26DAP-1" parent="PqZt3gQjXwHNJCz26DAP-0" />
        <mxCell id="PqZt3gQjXwHNJCz26DAP-2" value="" style="group" parent="PqZt3gQjXwHNJCz26DAP-1" vertex="1" connectable="0">
          <mxGeometry x="160" y="400" width="200" height="120" as="geometry" />
        </mxCell>
        <mxCell id="PqZt3gQjXwHNJCz26DAP-3" value="Проверить существование&amp;nbsp;ID&lt;div&gt;акции&lt;/div&gt;" style="rounded=0;whiteSpace=wrap;html=1;movable=1;resizable=1;rotatable=1;deletable=1;editable=1;locked=0;connectable=1;" parent="PqZt3gQjXwHNJCz26DAP-2" vertex="1">
          <mxGeometry width="199.99999999999997" height="119.99999999999999" as="geometry" />
        </mxCell>
        <mxCell id="PqZt3gQjXwHNJCz26DAP-4" value="&lt;font style=&quot;font-size: 10px;&quot;&gt;1&lt;/font&gt;" style="text;html=1;align=center;verticalAlign=middle;whiteSpace=wrap;rounded=0;movable=1;resizable=1;rotatable=1;deletable=1;editable=1;locked=0;connectable=1;" parent="PqZt3gQjXwHNJCz26DAP-2" vertex="1">
          <mxGeometry x="174.35897435897436" y="90" width="25.641025641025642" height="30" as="geometry" />
        </mxCell>
        <mxCell id="PqZt3gQjXwHNJCz26DAP-5" value="Проверить существование&lt;div&gt;тикера акции&lt;/div&gt;" style="rounded=0;whiteSpace=wrap;html=1;movable=1;resizable=1;rotatable=1;deletable=1;editable=1;locked=0;connectable=1;" parent="PqZt3gQjXwHNJCz26DAP-1" vertex="1">
          <mxGeometry x="440" y="480" width="199.99999999999997" height="119.99999999999999" as="geometry" />
        </mxCell>
        <mxCell id="PqZt3gQjXwHNJCz26DAP-6" value="" style="edgeStyle=orthogonalEdgeStyle;rounded=0;orthogonalLoop=1;jettySize=auto;html=1;" parent="PqZt3gQjXwHNJCz26DAP-1" source="PqZt3gQjXwHNJCz26DAP-3" target="PqZt3gQjXwHNJCz26DAP-5" edge="1">
          <mxGeometry relative="1" as="geometry" />
        </mxCell>
        <mxCell id="PqZt3gQjXwHNJCz26DAP-7" value="Подтверждение&lt;div&gt;существования ID&lt;/div&gt;" style="edgeLabel;html=1;align=center;verticalAlign=middle;resizable=0;points=[];" parent="PqZt3gQjXwHNJCz26DAP-6" vertex="1" connectable="0">
          <mxGeometry x="-0.175" y="-1" relative="1" as="geometry">
            <mxPoint x="31" y="-56" as="offset" />
          </mxGeometry>
        </mxCell>
        <mxCell id="PqZt3gQjXwHNJCz26DAP-8" value="" style="endArrow=classic;html=1;rounded=0;flowAnimation=0;shadow=0;" parent="PqZt3gQjXwHNJCz26DAP-1" edge="1">
          <mxGeometry width="50" height="50" relative="1" as="geometry">
            <mxPoint x="40" y="459.65999999999997" as="sourcePoint" />
            <mxPoint x="160" y="459.65999999999997" as="targetPoint" />
          </mxGeometry>
        </mxCell>
        <mxCell id="PqZt3gQjXwHNJCz26DAP-9" value="Подтверждение&lt;div&gt;существования&lt;/div&gt;&lt;div&gt;компании&lt;/div&gt;" style="edgeLabel;html=1;align=center;verticalAlign=middle;resizable=0;points=[];" parent="PqZt3gQjXwHNJCz26DAP-8" vertex="1" connectable="0">
          <mxGeometry x="-0.1529" y="-1" relative="1" as="geometry">
            <mxPoint x="4" y="-30" as="offset" />
          </mxGeometry>
        </mxCell>
        <mxCell id="PqZt3gQjXwHNJCz26DAP-12" value="" style="endArrow=classic;html=1;rounded=0;flowAnimation=0;shadow=0;" parent="PqZt3gQjXwHNJCz26DAP-1" edge="1">
          <mxGeometry width="50" height="50" relative="1" as="geometry">
            <mxPoint x="640" y="539.66" as="sourcePoint" />
            <mxPoint x="760" y="539.66" as="targetPoint" />
          </mxGeometry>
        </mxCell>
        <mxCell id="PqZt3gQjXwHNJCz26DAP-13" value="Подтверждение&lt;div&gt;существования&lt;/div&gt;&lt;div&gt;акции&lt;/div&gt;" style="edgeLabel;html=1;align=center;verticalAlign=middle;resizable=0;points=[];" parent="PqZt3gQjXwHNJCz26DAP-12" vertex="1" connectable="0">
          <mxGeometry x="-0.1529" y="-1" relative="1" as="geometry">
            <mxPoint x="4" y="-30" as="offset" />
          </mxGeometry>
        </mxCell>
        <mxCell id="PqZt3gQjXwHNJCz26DAP-14" value="" style="endArrow=classic;html=1;rounded=0;entryX=0.25;entryY=1;entryDx=0;entryDy=0;" parent="PqZt3gQjXwHNJCz26DAP-1" edge="1">
          <mxGeometry width="50" height="50" relative="1" as="geometry">
            <mxPoint x="490" y="720" as="sourcePoint" />
            <mxPoint x="490" y="600" as="targetPoint" />
          </mxGeometry>
        </mxCell>
        <mxCell id="PqZt3gQjXwHNJCz26DAP-15" value="Сервер" style="edgeLabel;html=1;align=center;verticalAlign=middle;resizable=0;points=[];" parent="PqZt3gQjXwHNJCz26DAP-14" vertex="1" connectable="0">
          <mxGeometry x="0.0846" relative="1" as="geometry">
            <mxPoint x="-30" y="45" as="offset" />
          </mxGeometry>
        </mxCell>
        <mxCell id="PqZt3gQjXwHNJCz26DAP-16" value="" style="endArrow=classic;html=1;rounded=0;entryX=0.75;entryY=1;entryDx=0;entryDy=0;" parent="PqZt3gQjXwHNJCz26DAP-1" edge="1">
          <mxGeometry width="50" height="50" relative="1" as="geometry">
            <mxPoint x="590" y="720" as="sourcePoint" />
            <mxPoint x="590" y="600" as="targetPoint" />
          </mxGeometry>
        </mxCell>
        <mxCell id="PqZt3gQjXwHNJCz26DAP-17" value="База&lt;br&gt;данных" style="edgeLabel;html=1;align=center;verticalAlign=middle;resizable=0;points=[];" parent="PqZt3gQjXwHNJCz26DAP-16" vertex="1" connectable="0">
          <mxGeometry x="0.0846" relative="1" as="geometry">
            <mxPoint x="-30" y="45" as="offset" />
          </mxGeometry>
        </mxCell>
        <mxCell id="PqZt3gQjXwHNJCz26DAP-18" value="" style="endArrow=classic;html=1;rounded=0;entryX=0.75;entryY=1;entryDx=0;entryDy=0;" parent="PqZt3gQjXwHNJCz26DAP-1" edge="1">
          <mxGeometry width="50" height="50" relative="1" as="geometry">
            <mxPoint x="490" y="660" as="sourcePoint" />
            <mxPoint x="310" y="520" as="targetPoint" />
            <Array as="points">
              <mxPoint x="310" y="660" />
            </Array>
          </mxGeometry>
        </mxCell>
        <mxCell id="PqZt3gQjXwHNJCz26DAP-19" value="" style="endArrow=classic;html=1;rounded=0;entryX=0.25;entryY=1;entryDx=0;entryDy=0;" parent="PqZt3gQjXwHNJCz26DAP-1" edge="1">
          <mxGeometry width="50" height="50" relative="1" as="geometry">
            <mxPoint x="590" y="680" as="sourcePoint" />
            <mxPoint x="210" y="520" as="targetPoint" />
            <Array as="points">
              <mxPoint x="210" y="680" />
            </Array>
          </mxGeometry>
        </mxCell>
        <mxCell id="PqZt3gQjXwHNJCz26DAP-20" value="" style="endArrow=classic;html=1;rounded=0;entryX=0;entryY=0;entryDx=0;entryDy=0;" parent="PqZt3gQjXwHNJCz26DAP-1" edge="1">
          <mxGeometry width="50" height="50" relative="1" as="geometry">
            <mxPoint x="170" y="280" as="sourcePoint" />
            <mxPoint x="170" y="400" as="targetPoint" />
          </mxGeometry>
        </mxCell>
        <mxCell id="PqZt3gQjXwHNJCz26DAP-21" value="Правила&lt;div&gt;работы&lt;/div&gt;&lt;div&gt;системы&lt;/div&gt;" style="edgeLabel;html=1;align=center;verticalAlign=middle;resizable=0;points=[];" parent="PqZt3gQjXwHNJCz26DAP-20" vertex="1" connectable="0">
          <mxGeometry x="-0.2027" relative="1" as="geometry">
            <mxPoint x="48" y="-28" as="offset" />
          </mxGeometry>
        </mxCell>
        <mxCell id="PqZt3gQjXwHNJCz26DAP-22" value="" style="endArrow=classic;html=1;rounded=0;entryX=0;entryY=0;entryDx=0;entryDy=0;" parent="PqZt3gQjXwHNJCz26DAP-1" edge="1">
          <mxGeometry width="50" height="50" relative="1" as="geometry">
            <mxPoint x="249.99999999999986" y="280" as="sourcePoint" />
            <mxPoint x="249.99999999999986" y="400" as="targetPoint" />
          </mxGeometry>
        </mxCell>
        <mxCell id="PqZt3gQjXwHNJCz26DAP-23" value="Регуляторные&lt;div&gt;требования&lt;/div&gt;" style="edgeLabel;html=1;align=center;verticalAlign=middle;resizable=0;points=[];" parent="PqZt3gQjXwHNJCz26DAP-22" vertex="1" connectable="0">
          <mxGeometry x="-0.2027" relative="1" as="geometry">
            <mxPoint x="50" y="-28" as="offset" />
          </mxGeometry>
        </mxCell>
        <mxCell id="PqZt3gQjXwHNJCz26DAP-24" value="" style="endArrow=classic;html=1;rounded=0;entryX=0;entryY=0;entryDx=0;entryDy=0;" parent="PqZt3gQjXwHNJCz26DAP-1" edge="1">
          <mxGeometry width="50" height="50" relative="1" as="geometry">
            <mxPoint x="349.9999999999999" y="280" as="sourcePoint" />
            <mxPoint x="349.9999999999999" y="400" as="targetPoint" />
          </mxGeometry>
        </mxCell>
        <mxCell id="PqZt3gQjXwHNJCz26DAP-25" value="Законы РБ" style="edgeLabel;html=1;align=center;verticalAlign=middle;resizable=0;points=[];" parent="PqZt3gQjXwHNJCz26DAP-24" vertex="1" connectable="0">
          <mxGeometry x="-0.2027" relative="1" as="geometry">
            <mxPoint x="42" y="-28" as="offset" />
          </mxGeometry>
        </mxCell>
        <mxCell id="PqZt3gQjXwHNJCz26DAP-26" value="" style="endArrow=classic;html=1;rounded=0;entryX=0.75;entryY=0;entryDx=0;entryDy=0;" parent="PqZt3gQjXwHNJCz26DAP-1" edge="1">
          <mxGeometry width="50" height="50" relative="1" as="geometry">
            <mxPoint x="350" y="330" as="sourcePoint" />
            <mxPoint x="590" y="480" as="targetPoint" />
            <Array as="points">
              <mxPoint x="590" y="330" />
            </Array>
          </mxGeometry>
        </mxCell>
        <mxCell id="PqZt3gQjXwHNJCz26DAP-27" value="" style="endArrow=classic;html=1;rounded=0;entryX=0.5;entryY=0;entryDx=0;entryDy=0;" parent="PqZt3gQjXwHNJCz26DAP-1" edge="1">
          <mxGeometry width="50" height="50" relative="1" as="geometry">
            <mxPoint x="250" y="350" as="sourcePoint" />
            <mxPoint x="540" y="480" as="targetPoint" />
            <Array as="points">
              <mxPoint x="540" y="350" />
            </Array>
          </mxGeometry>
        </mxCell>
        <mxCell id="PqZt3gQjXwHNJCz26DAP-28" value="" style="endArrow=classic;html=1;rounded=0;entryX=0.25;entryY=0;entryDx=0;entryDy=0;" parent="PqZt3gQjXwHNJCz26DAP-1" edge="1">
          <mxGeometry width="50" height="50" relative="1" as="geometry">
            <mxPoint x="170" y="370" as="sourcePoint" />
            <mxPoint x="490" y="480" as="targetPoint" />
            <Array as="points">
              <mxPoint x="490" y="370" />
            </Array>
          </mxGeometry>
        </mxCell>
        <mxCell id="dDkQ1Z0dc-vcqJVYeFj3-0" value="&lt;font style=&quot;font-size: 10px;&quot;&gt;2&lt;/font&gt;" style="text;html=1;align=center;verticalAlign=middle;whiteSpace=wrap;rounded=0;movable=1;resizable=1;rotatable=1;deletable=1;editable=1;locked=0;connectable=1;" vertex="1" parent="PqZt3gQjXwHNJCz26DAP-1">
          <mxGeometry x="614.3589743589744" y="570" width="25.641025641025642" height="30" as="geometry" />
        </mxCell>
      </root>
    </mxGraphModel>
  </diagram>
</mxfile>
